<svg width="22" height="22" viewBox="0 0 22 22" fill="none" xmlns="http://www.w3.org/2000/svg">
<path d="M18.9187 12.8794L19.4634 14.2741C19.5333 14.453 19.528 14.6477 19.4482 14.8224C19.3683 14.9972 19.2248 15.1288 19.0437 15.1931L17.6331 15.6949C17.2002 15.8487 16.8749 16.2241 16.7841 16.6744L16.4883 18.1423C16.4504 18.3306 16.3405 18.4915 16.1788 18.5953C16.0174 18.6994 15.8254 18.7324 15.6383 18.6886L14.1803 18.3479C13.7321 18.2428 13.256 18.3833 12.9365 18.7131L11.8942 19.7878C11.6266 20.0639 11.1513 20.0639 10.8836 19.7878L9.84133 18.7131C9.59158 18.4556 9.2464 18.3139 8.89389 18.3139C8.79501 18.3139 8.69553 18.3249 8.59754 18.3479L7.13956 18.6886C6.95241 18.732 6.76062 18.6991 6.599 18.5953C6.43739 18.4915 6.32745 18.3306 6.28951 18.1423L5.99377 16.6744C5.90295 16.2241 5.57763 15.8487 5.14476 15.6949L3.73413 15.1931C3.5531 15.1288 3.40956 14.9972 3.32964 14.8224C3.24988 14.6477 3.2445 14.453 3.31441 14.2741L3.85915 12.8793C4.02615 12.4514 3.95535 11.9598 3.67453 11.5964L2.75906 10.4117C2.64151 10.2597 2.59192 10.0712 2.61925 9.88104C2.64674 9.69089 2.74741 9.5242 2.9029 9.41142L4.11487 8.53269C4.48709 8.26309 4.69337 7.81125 4.65349 7.35359L4.52384 5.86185C4.50726 5.67051 4.5673 5.4853 4.69307 5.34011C4.81884 5.19492 4.99375 5.10904 5.18569 5.09828L6.68056 5.01434C7.13912 4.9885 7.5569 4.72008 7.77094 4.31351L8.46819 2.98861C8.55766 2.81863 8.70852 2.69511 8.89284 2.64104C9.07716 2.58682 9.27089 2.60952 9.43788 2.70377L10.7408 3.4415C11.1405 3.66794 11.6373 3.66794 12.037 3.4415L13.34 2.70377C13.5073 2.60922 13.7008 2.58667 13.885 2.64104C14.0693 2.69511 14.2202 2.81863 14.3097 2.98861L15.0069 4.31351C15.221 4.72008 15.6387 4.9885 16.0973 5.01434L17.5922 5.09828C17.7841 5.10904 17.959 5.19492 18.0848 5.34011C18.2105 5.4853 18.2706 5.67051 18.254 5.862L18.1244 7.35344C18.0845 7.81125 18.2908 8.26309 18.6628 8.53254L19.875 9.41142C20.0304 9.5242 20.1311 9.69089 20.1586 9.88104C20.1859 10.0712 20.1363 10.2597 20.0189 10.4117L19.1032 11.5964C18.8225 11.9598 18.7517 12.4514 18.9187 12.8794Z" stroke="#202224" stroke-width="0.3"/>
<path d="M17.1377 9.75717L15.9689 9.67218C15.903 9.6671 15.847 9.62707 15.8225 9.56762L15.3783 8.48172C15.2592 8.18612 14.976 7.99463 14.6571 7.99373C14.3282 8.00299 14.0516 8.18388 13.9301 8.48037L13.5612 9.3802L13.0831 9.34521C12.9643 9.3364 12.8625 9.26246 12.8175 9.15223L12.2424 7.7425C12.098 7.3882 11.7706 7.16818 11.3879 7.16803C11.0052 7.16803 10.6777 7.3882 10.5331 7.7425L9.95801 9.15223C9.91305 9.26246 9.81118 9.3364 9.69244 9.34506L9.20079 9.3811L8.83447 8.48022C8.71303 8.18373 8.43461 7.99911 8.1075 7.99373C7.7886 7.99463 7.5054 8.18612 7.38695 8.48037L6.94198 9.56762C6.91763 9.62707 6.86162 9.6671 6.7968 9.67203L5.62292 9.75732C5.30387 9.78211 5.03456 9.99496 4.93672 10.2997C4.83933 10.6032 4.93388 10.9318 5.17735 11.1363L6.07311 11.8924C6.12404 11.9361 6.1463 12.0037 6.13211 12.0645L5.84906 13.2049C5.77303 13.5153 5.89103 13.8371 6.14988 14.0249C6.28715 14.1245 6.44802 14.1747 6.60919 14.1747C6.75154 14.1747 6.89418 14.1356 7.021 14.0567L8.02161 13.4382C8.07658 13.4035 8.14484 13.4037 8.2007 13.4386L8.58988 13.6802L8.54679 13.8555C8.45552 14.2271 8.59115 14.5977 8.90079 14.8227C9.21043 15.0472 9.60431 15.0617 9.92993 14.8602L11.2236 14.0578C11.3249 13.9947 11.4508 13.9949 11.5518 14.0576L12.8456 14.8602C12.9984 14.955 13.1663 15.0021 13.3336 15.0021C13.5225 15.0021 13.7106 14.9419 13.8749 14.8225C14.1845 14.5976 14.32 14.227 14.2287 13.8554L14.1844 13.6752L14.5647 13.4382C14.6193 13.404 14.6877 13.4035 14.7442 13.4389L15.743 14.0564C15.8703 14.1354 16.0131 14.1746 16.1556 14.1746C16.3167 14.1746 16.4775 14.1244 16.6147 14.0249C16.8736 13.8371 16.9916 13.5153 16.9154 13.204L16.6334 12.0685C16.6183 12.0037 16.6406 11.9361 16.6894 11.8942L17.5877 11.1358C17.8306 10.9302 17.9241 10.6011 17.826 10.2977C17.7275 9.99407 17.4579 9.78196 17.1377 9.75717ZM14.4962 8.71204C14.5357 8.616 14.6199 8.60554 14.6549 8.60554C14.6834 8.60181 14.7727 8.61555 14.8116 8.71189L15.2562 9.79914C15.2579 9.80325 15.261 9.80633 15.2628 9.8104C15.1069 9.60672 14.873 9.47632 14.6016 9.45634L14.2036 9.42722L14.4962 8.71204ZM8.52408 12.9193C8.2727 12.7623 7.94827 12.7624 7.69868 12.9185L6.69866 13.5366C6.61113 13.5914 6.53705 13.5499 6.50911 13.5297C6.48118 13.5094 6.4186 13.4512 6.44309 13.3513L6.72689 12.2077C6.79426 11.92 6.69642 11.6214 6.46983 11.4267L5.57138 10.6683C5.49282 10.6023 5.5088 10.5192 5.51925 10.4867C5.52986 10.4534 5.56601 10.3754 5.66862 10.3675L6.84205 10.2822C7.14034 10.2596 7.39576 10.0746 7.50823 9.79914L7.95365 8.71055C7.99174 8.616 8.07523 8.60554 8.10929 8.60554C8.13662 8.59434 8.22863 8.61555 8.26807 8.7113L8.5596 9.42807L8.17397 9.45634C7.79233 9.48442 7.4818 9.72789 7.3635 10.0918C7.24535 10.4558 7.35349 10.8353 7.6458 11.0822L8.80878 12.0647C8.89974 12.1417 8.93873 12.2613 8.9102 12.3769L8.74343 13.0554L8.52408 12.9193ZM13.5152 14.3277C13.4755 14.3563 13.3328 14.4421 13.1682 14.3404L11.8742 13.5377C11.7243 13.4448 11.5559 13.3982 11.3878 13.3982C11.2196 13.3982 11.0512 13.4448 10.9011 13.5378L9.6073 14.3404C9.44225 14.4425 9.3002 14.3565 9.26032 14.3277C9.22058 14.2988 9.09467 14.19 9.14097 14.0015L9.24196 13.5906C9.24237 13.5883 9.24329 13.5861 9.24364 13.5838L9.50438 12.523C9.58863 12.1801 9.47346 11.8255 9.20371 11.5975L8.04073 10.615C7.89226 10.4895 7.93035 10.3276 7.94543 10.2809C7.96067 10.2342 8.0252 10.0808 8.21878 10.0667L9.73725 9.95523C10.0895 9.92939 10.391 9.71027 10.5244 9.38345L11.0995 7.97372C11.1728 7.79388 11.3388 7.77984 11.3878 7.77984C11.4368 7.77984 11.6027 7.79388 11.676 7.97357L12.2511 9.38345C12.3845 9.71027 12.6861 9.92939 13.0383 9.95538L14.5567 10.0667C14.7503 10.0808 14.815 10.2342 14.8301 10.2809C14.8453 10.3276 14.8833 10.4897 14.7349 10.6148L13.5718 11.5975C13.3022 11.8253 13.187 12.1798 13.2711 12.523L13.6345 14.0015C13.681 14.19 13.5549 14.2987 13.5152 14.3277ZM17.1926 10.6688L16.2927 11.4284C16.0682 11.6214 15.9704 11.92 16.0386 12.2117L16.3214 13.3504C16.346 13.4512 16.2834 13.5094 16.2555 13.5297C16.2276 13.5499 16.1536 13.591 16.0654 13.5363L15.0671 12.9193C14.8162 12.7624 14.4915 12.7626 14.2408 12.9191L14.0308 13.0501L13.8653 12.3771C13.8369 12.2613 13.8758 12.1417 13.9667 12.0649L15.1299 11.0822C15.4222 10.8353 15.5302 10.4558 15.412 10.0918C15.4009 10.0576 15.3865 10.0255 15.3721 9.99354C15.5054 10.159 15.7021 10.2655 15.9235 10.2823L17.092 10.3673C17.197 10.3754 17.2331 10.4531 17.2439 10.4861C17.2545 10.5189 17.2708 10.6026 17.1926 10.6688Z" fill="#202224"/>
</svg>
