<svg width="30" height="31" viewBox="0 0 30 31" fill="none" xmlns="http://www.w3.org/2000/svg">
<path opacity="0.78" fill-rule="evenodd" clip-rule="evenodd" d="M13.9502 9.36466C13.971 9.09492 14.1959 8.88663 14.4664 8.88663H14.8991C15.1651 8.88663 15.3878 9.08818 15.4143 9.35285L16.058 15.7899L20.6294 18.4021C20.7907 18.4943 20.8902 18.6658 20.8902 18.8516V19.254C20.8902 19.5954 20.5656 19.8433 20.2363 19.7535L13.7095 17.9734C13.4699 17.9081 13.3104 17.6818 13.3295 17.4342L13.9502 9.36466Z" fill="#FF9066"/>
<path opacity="0.901274" fill-rule="evenodd" clip-rule="evenodd" d="M7.83139 0.227111C7.55792 -0.0988062 7.02988 0.0259393 6.93116 0.439784L5.23973 7.53094C5.1593 7.86815 5.42653 8.18759 5.77264 8.16798L13.0674 7.7546C13.4929 7.73049 13.7087 7.23135 13.4347 6.90489L11.5694 4.68187C12.7756 4.2697 14.0546 4.05442 15.3679 4.05442C21.8493 4.05442 27.1034 9.30859 27.1034 15.7899C27.1034 22.2713 21.8493 27.5255 15.3679 27.5255C8.88656 27.5255 3.63239 22.2713 3.63239 15.7899C3.63239 14.7019 3.77973 13.6362 4.06703 12.612L1.40835 11.8662C1.0583 13.1142 0.871094 14.4302 0.871094 15.7899C0.871094 23.7963 7.36154 30.2868 15.3679 30.2868C23.3743 30.2868 29.8647 23.7963 29.8647 15.7899C29.8647 7.78357 23.3743 1.29312 15.3679 1.29312C13.354 1.29312 11.4361 1.70377 9.69318 2.4459L7.83139 0.227111Z" fill="#FF9066"/>
</svg>
