<svg width="30" height="30" viewBox="0 0 30 30" fill="none" xmlns="http://www.w3.org/2000/svg">
<path d="M4.19173 26.0509H28.3531C29.2427 26.0509 29.9638 26.7721 29.9638 27.6617C29.9638 28.5513 29.2427 29.2724 28.3531 29.2724H2.58097C1.69138 29.2724 0.970215 28.5513 0.970215 27.6617V1.88957C0.970215 0.999969 1.69138 0.278809 2.58097 0.278809C3.47057 0.278809 4.19173 0.999969 4.19173 1.88957V26.0509Z" fill="#4AD991"/>
<path opacity="0.5" d="M10.199 19.0988C9.59052 19.7478 8.57118 19.7807 7.92219 19.1723C7.27319 18.5638 7.24031 17.5445 7.84874 16.8955L13.8891 10.4525C14.4775 9.82483 15.4553 9.7704 16.1098 10.3289L20.8772 14.3971L27.0887 6.52915C27.6399 5.83093 28.6528 5.71176 29.351 6.263C30.0493 6.81423 30.1684 7.82712 29.6172 8.52535L22.3688 17.7067C21.8026 18.4238 20.754 18.5269 20.059 17.9338L15.1879 13.7773L10.199 19.0988Z" fill="#4AD991"/>
</svg>
