<svg width="34" height="26" viewBox="0 0 34 26" fill="none" xmlns="http://www.w3.org/2000/svg">
<path opacity="0.587821" fill-rule="evenodd" clip-rule="evenodd" d="M6.90186 5.8724C6.90186 8.92245 9.37441 11.395 12.4245 11.395C15.4745 11.395 17.947 8.92245 17.947 5.8724C17.947 2.82236 15.4745 0.349808 12.4245 0.349808C9.37441 0.349808 6.90186 2.82236 6.90186 5.8724ZM20.7084 11.3951C20.7084 13.6826 22.5628 15.537 24.8504 15.537C27.1379 15.537 28.9923 13.6826 28.9923 11.3951C28.9923 9.10756 27.1379 7.25315 24.8504 7.25315C22.5628 7.25315 20.7084 9.10756 20.7084 11.3951Z" fill="#8280FF"/>
<path fill-rule="evenodd" clip-rule="evenodd" d="M12.4014 14.1562C5.88274 14.1562 0.534584 17.5064 -0.000565096 24.0958C-0.0297153 24.4547 0.656707 25.2014 1.00296 25.2014H23.8102C24.8473 25.2014 24.8635 24.3668 24.8473 24.0969C24.4428 17.3223 19.0118 14.1562 12.4014 14.1562ZM32.3828 25.2014H27.0591V25.2012C27.0591 22.0936 26.0324 19.2257 24.2996 16.9184C29.0027 16.9698 32.8429 19.3477 33.1319 24.373C33.1435 24.5754 33.1319 25.2014 32.3828 25.2014Z" fill="#8280FF"/>
</svg>
