<svg width="29" height="32" viewBox="0 0 29 32" fill="none" xmlns="http://www.w3.org/2000/svg">
<path fill-rule="evenodd" clip-rule="evenodd" d="M12.1524 1.27881C8.60979 1.27881 5.72214 4.15314 5.72214 7.68594C5.72214 10.2008 7.18585 12.3811 9.30696 13.4293C4.63531 14.6745 1.20361 18.9139 1.20361 23.9682V27.4563C1.20416 27.5931 1.25901 27.724 1.3561 27.8203C1.45319 27.9167 1.58457 27.9705 1.72134 27.97H5.53177C5.5995 27.9702 5.66661 27.9572 5.72928 27.9315C5.79195 27.9058 5.84895 27.8681 5.89703 27.8204C5.9451 27.7727 5.98331 27.716 6.00947 27.6535C6.03563 27.591 6.04924 27.524 6.0495 27.4563C6.04977 27.3882 6.03656 27.3208 6.01063 27.2578C5.98471 27.1949 5.94658 27.1377 5.89846 27.0896C5.85033 27.0415 5.79315 27.0033 5.73021 26.9774C5.66728 26.9515 5.59984 26.9383 5.53177 26.9386H2.23504V23.9682C2.23504 18.5303 6.58171 14.158 12.0255 14.0911C12.0676 14.0921 12.1102 14.0932 12.1524 14.0932C12.1902 14.0932 12.2276 14.0928 12.2653 14.0922C15.9006 14.1322 19.0425 16.0973 20.7362 19.0126C20.805 19.1308 20.918 19.2168 21.0502 19.2518C21.1824 19.2867 21.3231 19.2677 21.4413 19.1989C21.5592 19.1301 21.6451 19.0174 21.68 18.8854C21.7149 18.7534 21.6961 18.613 21.6277 18.4949C20.1962 16.0311 17.824 14.1825 14.9979 13.4294C17.1173 12.381 18.5777 10.2004 18.5777 7.68604C18.5777 4.15324 15.6951 1.27881 12.1524 1.27881ZM12.1524 2.31124C15.1397 2.31124 17.5463 4.71261 17.5463 7.68594C17.5463 10.6185 15.2046 12.995 12.2743 13.0596C12.2336 13.0592 12.1933 13.0575 12.1524 13.0575C12.1057 13.0575 12.0591 13.059 12.0124 13.0596C9.09002 12.9862 6.75357 10.6128 6.75357 7.68594C6.75357 4.71261 9.16519 2.31124 12.1524 2.31124ZM20.1661 21.6162C20.0695 21.617 19.975 21.6448 19.8935 21.6967C19.8119 21.7485 19.7465 21.8222 19.7048 21.9093L16.0011 29.5765L14.6263 27.1974C14.5812 27.119 14.5164 27.0539 14.4383 27.0084C14.3601 26.963 14.2714 26.9389 14.181 26.9386H9.63935C9.57162 26.9388 9.50461 26.9524 9.44214 26.9786C9.37968 27.0047 9.32297 27.0429 9.27527 27.091C9.22757 27.1391 9.1898 27.1961 9.16413 27.2588C9.13846 27.3214 9.12538 27.3886 9.12565 27.4563C9.12618 27.5924 9.18047 27.7227 9.27669 27.8189C9.37292 27.9152 9.50327 27.9694 9.63935 27.97H13.8839L15.5932 30.9353C15.6399 31.0171 15.7082 31.0846 15.7906 31.1303C15.8729 31.1761 15.9662 31.1984 16.0604 31.1949C16.1545 31.1914 16.2459 31.1621 16.3246 31.1103C16.4033 31.0585 16.4663 30.9862 16.5068 30.9011L20.1692 23.3175L22.2783 27.6809C22.3209 27.7678 22.3869 27.8409 22.469 27.8921C22.5511 27.9432 22.646 27.9702 22.7427 27.97H27.8323C27.9686 27.9697 28.0992 27.9155 28.1956 27.8193C28.2921 27.723 28.3465 27.5925 28.347 27.4563C28.3473 27.3885 28.3342 27.3213 28.3085 27.2585C28.2827 27.1958 28.2449 27.1388 28.1971 27.0907C28.1493 27.0426 28.0924 27.0044 28.0298 26.9783C27.9673 26.9522 27.9001 26.9387 27.8323 26.9385H23.067L20.6305 21.9093C20.5885 21.8217 20.5227 21.7477 20.4406 21.6959C20.3584 21.644 20.2633 21.6164 20.1661 21.6162Z" fill="#FEC53D" stroke="#FEC53D" stroke-width="1.03549"/>
</svg>
