<svg width="22" height="22" viewBox="0 0 22 22" fill="none" xmlns="http://www.w3.org/2000/svg">
<path d="M13.7498 15.5833H18.3332L17.0453 14.2955C16.6961 13.9462 16.4998 13.4725 16.4998 12.9786V10.0833C16.4998 7.6886 14.9694 5.65133 12.8332 4.8963V4.58333C12.8332 3.57081 12.0124 2.75 10.9998 2.75C9.98731 2.75 9.1665 3.57081 9.1665 4.58333V4.8963C7.03032 5.65133 5.49984 7.6886 5.49984 10.0833V12.9786C5.49984 13.4725 5.30362 13.9462 4.95436 14.2955L3.6665 15.5833H8.24984M13.7498 15.5833V16.5C13.7498 18.0188 12.5186 19.25 10.9998 19.25C9.48105 19.25 8.24984 18.0188 8.24984 16.5V15.5833M13.7498 15.5833H8.24984" stroke="#202224" stroke-width="1.5" stroke-linecap="round" stroke-linejoin="round"/>
<rect x="1.5" y="12.5" width="6" height="6" rx="3" fill="#F97316"/>
<rect x="1.5" y="12.5" width="6" height="6" rx="3" stroke="white"/>
</svg>
