<svg width="24" height="24" viewBox="0 0 24 24" fill="none" xmlns="http://www.w3.org/2000/svg">
<path d="M14.6525 12.6805C14.6525 13.1348 13.9707 13.1348 13.9707 12.6805C13.9707 12.2263 14.6525 12.2263 14.6525 12.6805Z" fill="black"/>
<path d="M16.5275 12.6805C16.5275 13.1348 15.8457 13.1348 15.8457 12.6805C15.8457 12.2263 16.5275 12.2263 16.5275 12.6805Z" fill="black"/>
<path d="M20.4374 6.57368C20.4442 6.57112 20.4501 6.56856 20.4561 6.56601C20.5345 6.53106 22.3695 5.69753 22.3217 4.36455C22.3217 4.35688 22.3209 4.34921 22.32 4.34154C22.2408 3.5762 22.0303 2.64552 21.478 2.56113C21.4669 2.55943 19.407 2.45545 19.407 2.45545L19.4078 2.4546C19.3013 2.43158 19.2067 2.37278 19.1385 2.28755C18.7669 1.78811 17.3734 0.274476 14.993 1.66198C14.7186 1.74039 13.5305 2.09749 13.02 2.52703C12.8828 2.63527 11.889 3.49776 11.8089 5.87045V5.8713C11.8081 5.88834 11.8089 5.90454 11.8106 5.92158C11.814 5.95312 11.9052 6.69033 12.553 7.00396C13.1325 7.28437 13.926 7.11646 14.8975 6.51135L14.8984 6.5122C15.1132 6.38095 15.3535 6.29658 15.6041 6.26334C15.7669 6.35795 15.9757 6.3017 16.0694 6.13891C16.1632 5.97528 16.1078 5.76733 15.945 5.67272C15.5257 5.43067 14.8404 5.76221 14.5524 5.92414C13.8041 6.38947 13.2015 6.55566 12.8555 6.39118L12.8547 6.39203C12.6603 6.27868 12.5265 6.08435 12.4916 5.86276C12.5708 3.75851 13.4308 3.07243 13.4359 3.06807C13.4427 3.06296 13.4495 3.05784 13.4563 3.05188C13.8194 2.7425 14.8524 2.40927 15.2197 2.30613C15.2487 2.29846 15.2759 2.28653 15.3015 2.27119C17.0964 1.20585 18.1329 2.07943 18.5904 2.69477H18.5912C18.7804 2.94277 19.0634 3.10216 19.3736 3.13538L21.3406 3.23425C21.4506 3.37487 21.5887 3.90328 21.6424 4.39844C21.6568 5.11521 20.6068 5.74844 20.1884 5.9385C18.6253 6.53595 19.1588 8.8209 19.3864 9.7977L19.4469 10.0559C19.827 11.6736 20.1551 13.0712 19.6753 14.6677L18.6074 18.2175C18.2904 19.2095 18.3049 19.9996 18.6509 20.5655H18.6492C18.8588 20.909 19.1938 21.1579 19.5841 21.2576C19.6941 21.3019 19.7818 21.3871 19.8279 21.4962C19.9012 21.734 19.902 21.9889 19.8296 22.2266H18.3057H18.3066C18.1182 22.2266 17.9657 22.3792 17.9657 22.5676C17.9657 22.7559 18.1182 22.9085 18.3066 22.9085H20.0801C20.2191 22.9085 20.3443 22.8241 20.3963 22.6954C20.4304 22.611 20.7219 21.8499 20.4551 21.2286C20.3324 20.944 20.0989 20.7215 19.8091 20.6124C19.787 20.6039 19.7631 20.5971 19.7401 20.5937C19.527 20.5366 19.3446 20.3985 19.2313 20.2102C18.9969 19.8266 19.0054 19.2096 19.2577 18.4195L20.3273 14.8638C20.86 13.0928 20.4952 11.5425 20.11 9.9002L20.0495 9.64367C19.862 8.83827 19.4223 6.95462 20.4374 6.57368Z" fill="black"/>
<path d="M16.3858 19.71C17.913 18.031 17.348 15.4325 17.1451 14.6953C18.8454 12.7717 17.4997 10.3088 17.4852 10.283C17.44 10.2029 17.365 10.1441 17.2764 10.1202C17.1878 10.0964 17.0932 10.1091 17.0139 10.156L15.9963 10.7577C15.4406 10.6052 14.8534 10.6052 14.2986 10.7577L13.2809 10.156H13.2801C13.194 10.1049 13.09 10.0947 12.9954 10.127C12.9017 10.1594 12.8258 10.2319 12.7892 10.3256C12.3281 11.4625 12.3741 12.7426 12.9145 13.8447C11.4094 14.3458 10.3092 15.2058 9.64174 16.4039C8.45878 18.5287 8.96247 21.1034 9.27611 22.2268C9.27611 22.2268 5.08811 22.2276 5.06258 22.2276C2.42738 22.2276 2.25786 20.3219 2.25524 20.3083C1.95268 18.66 3.22172 17.8658 3.56263 17.6842C3.54473 17.7933 3.5149 17.9237 3.48422 18.0601V18.061C3.39643 18.3669 3.35382 18.6831 3.35723 19.001C3.41092 19.682 3.61462 20.1414 3.97769 20.4047C4.47456 20.7644 5.16065 20.6544 5.6328 20.5394V20.5402C5.84161 20.484 6.03934 20.3953 6.22001 20.276C6.22683 20.3076 6.23365 20.3391 6.24132 20.3706C6.28905 20.5513 6.47144 20.6621 6.65381 20.6195C6.7416 20.5973 6.81745 20.5419 6.86433 20.4644C6.9112 20.3868 6.92484 20.2948 6.90353 20.207C6.80467 19.7595 6.76802 19.3019 6.79614 18.845C7.20694 13.3981 10.4123 11.155 10.4448 11.1319C10.4499 11.1285 10.4542 11.1251 10.4593 11.1217C11.4701 10.3793 12.3079 9.42564 12.913 8.32696C12.9564 8.24685 12.9649 8.15395 12.9394 8.06702C12.913 7.98009 12.8533 7.90764 12.774 7.86503C12.6939 7.82242 12.601 7.81304 12.5141 7.83946C12.428 7.86503 12.3547 7.92469 12.3121 8.0048C11.7522 9.01134 10.9834 9.88747 10.0561 10.5719C9.82259 10.7322 6.56018 13.0708 6.11945 18.7461C6.11945 18.7495 6.08622 19.2251 6.07854 19.4586C6.07514 19.5668 5.74872 19.8106 5.47174 19.8779C4.93652 20.0075 4.57854 19.999 4.37742 19.8532C4.18822 19.716 4.07402 19.4117 4.03652 18.9481V18.9473C4.04333 18.6993 4.08083 18.4521 4.14901 18.2126C4.19163 18.0413 4.22572 17.8674 4.24958 17.6919C4.29731 17.4703 4.22401 17.2402 4.05697 17.0868C3.85498 16.9427 3.59163 16.9172 3.36577 17.0211C2.59703 17.362 1.2385 18.5109 1.58196 20.4191C1.61349 20.7004 1.96208 22.9094 5.0576 22.9094C5.08572 22.9094 9.39832 22.9086 9.39832 22.9086H9.39917C9.58582 22.9137 9.76395 22.8285 9.879 22.681C9.98979 22.5267 10.0213 22.329 9.96338 22.1475C9.74179 21.3915 9.10769 18.7665 10.2378 16.7364C10.8736 15.5952 11.9756 14.8008 13.5149 14.3748C13.6223 14.3449 13.7084 14.2648 13.745 14.16C13.7825 14.0543 13.7655 13.9384 13.7007 13.8472C13.1578 12.9864 13.0103 11.9339 13.2959 10.9572L14.0825 11.4225C14.1729 11.4762 14.2819 11.4847 14.38 11.4464C14.8828 11.281 15.4257 11.2827 15.9268 11.4515C16.0214 11.4847 16.1263 11.4736 16.2123 11.4225L17.0382 10.9341C17.305 11.5929 17.7294 13.1365 16.52 14.3661C16.4305 14.4573 16.399 14.5903 16.4391 14.7122C16.4484 14.7411 17.3689 17.6166 15.8817 19.2514V19.2506C15.6831 19.4756 15.5663 19.7611 15.5501 20.0611V21.3199V21.319C15.5501 21.4801 15.6635 21.6199 15.8212 21.6531C16.1271 21.7435 16.3862 21.9489 16.5422 22.2267H14.6893C14.6195 21.9037 14.4234 21.6216 14.1447 21.4435C14.3101 21.0182 14.3919 20.5648 14.3876 20.1079C14.3825 19.6102 14.1311 19.1466 13.7169 18.8713C13.5584 18.7699 13.347 18.8159 13.2456 18.9744C13.1442 19.1329 13.1902 19.3435 13.3487 19.4457C13.5737 19.6026 13.7075 19.8599 13.7067 20.1344C13.7212 20.5051 13.5865 21.1537 13.399 21.4008H13.3981C13.3274 21.4946 13.3095 21.619 13.3513 21.729C13.3939 21.8389 13.4902 21.9199 13.6052 21.942C13.8865 22.0128 14.0731 22.2795 14.0442 22.5676C14.0442 22.756 14.1967 22.9085 14.3851 22.9085H16.9214C17.1072 22.9085 17.2589 22.7602 17.2623 22.5753L17.2692 22.2506C17.27 22.2037 17.2615 22.1568 17.2436 22.1142C17.0561 21.6489 16.6922 21.2773 16.2328 21.0778V20.0602V20.0611C16.249 19.9315 16.3018 19.8097 16.3862 19.7099L16.3858 19.71Z" fill="black"/>
<path d="M11.1835 18.7875C11.1895 18.7875 11.1946 18.7875 11.2005 18.7866C11.3889 18.7773 11.5338 18.617 11.5244 18.4295C11.504 18.0264 11.85 17.4793 12.029 17.3812H12.0281C12.1935 17.2909 12.2531 17.0829 12.1628 16.9185C12.0724 16.7531 11.8653 16.6935 11.7 16.7838C11.2849 17.0122 10.8102 17.8116 10.8434 18.4636C10.852 18.6443 11.002 18.7875 11.1835 18.7875Z" fill="black"/>
<path d="M15.4201 14.2145C15.6076 14.2145 15.761 14.062 15.761 13.8736C15.761 13.6861 15.6076 13.5327 15.4201 13.5327H15.0792C14.8908 13.5327 14.7383 13.6861 14.7383 13.8736C14.7383 14.062 14.8908 14.2145 15.0792 14.2145H15.4201Z" fill="black"/>
<path d="M17.9932 3.43589C18.0469 3.41032 18.1509 3.37452 18.1278 3.29612C18.1193 3.26714 18.0912 3.24328 18.0494 3.22026C17.7 3.02424 17.5858 2.86487 17.5176 2.85208C17.2219 2.79498 17.1264 3.16997 17.1102 3.24583H17.1094C17.1119 3.30976 17.1426 3.37027 17.192 3.41118C17.3037 3.48959 17.4366 3.52964 17.5722 3.52708C17.7179 3.53135 17.8628 3.49981 17.9932 3.43589Z" fill="black"/>
<path d="M12.9452 22.2275H10.9015C10.7131 22.2275 10.5605 22.3801 10.5605 22.5684C10.5605 22.7568 10.7131 22.9094 10.9015 22.9094H12.9452C13.1336 22.9094 13.2861 22.7568 13.2861 22.5684C13.2861 22.3801 13.1336 22.2275 12.9452 22.2275Z" fill="black"/>
</svg>
