<svg width="22" height="22" viewBox="0 0 22 22" fill="none" xmlns="http://www.w3.org/2000/svg">
<g clip-path="url(#clip0_2588_2499)">
<path d="M5.54297 8.59375C6.27231 8.59375 6.97179 8.30402 7.48751 7.78829M5.54297 8.59375C4.81362 8.59375 4.11415 8.30402 3.59843 7.78829M5.54297 8.59375V10.6563M7.48751 7.78829C8.00324 7.27257 8.29297 6.5731 8.29297 5.84375M7.48751 7.78829L8.94563 9.24642M8.29297 5.84375C8.29297 5.11441 8.00324 4.41493 7.48751 3.89921M8.29297 5.84375H10.3555M7.48751 3.89921C6.97179 3.38348 6.27231 3.09375 5.54297 3.09375M7.48751 3.89921L8.94563 2.44108M5.54297 3.09375C4.81362 3.09375 4.11415 3.38348 3.59843 3.89921M5.54297 3.09375V1.03125M3.59843 3.89921C3.0827 4.41493 2.79297 5.11441 2.79297 5.84375M3.59843 3.89921L2.1403 2.44108M2.79297 5.84375C2.79297 6.5731 3.0827 7.27257 3.59843 7.78829M2.79297 5.84375H0.730469M3.59843 7.78829L2.1403 9.24642M5.08464 1.03125H6.0013M8.62205 2.11658L9.27014 2.76467M10.3555 5.38542V6.30208M9.27014 8.92283L8.62205 9.57092M6.0013 10.6563H5.08464M2.46389 9.57092L1.8158 8.92283M0.730469 6.30208V5.38542M1.8158 2.76467L2.46389 2.11658M16.6337 8.34167C17.2311 8.84823 17.716 9.474 18.0574 10.1789C18.3988 10.8837 18.5892 11.6522 18.6164 12.4349C18.6436 13.2176 18.507 13.9974 18.2153 14.7243C17.9236 15.4511 17.4832 16.109 16.9225 16.6558C15.8266 17.7255 14.3559 18.3243 12.8245 18.3243C11.2931 18.3243 9.82241 17.7255 8.72655 16.6558C8.07081 16.0126 7.58077 15.2199 7.29839 14.3458" stroke="#202224" stroke-width="1.5" stroke-linecap="round" stroke-linejoin="round"/>
<path d="M14.8052 10.1328C14.6488 10.2858 14.4387 10.3715 14.2199 10.3715C14.0011 10.3715 13.791 10.2858 13.6346 10.1328L12.4667 8.98331C12.39 8.90857 12.3289 8.81921 12.2873 8.72049C12.2456 8.62178 12.2241 8.51571 12.2241 8.40856C12.2241 8.30141 12.2456 8.19535 12.2873 8.09663C12.3289 7.99792 12.39 7.90855 12.4667 7.83381L15.9794 4.38348C16.136 4.2309 16.346 4.14551 16.5647 4.14551C16.7834 4.14551 16.9934 4.2309 17.15 4.38348L18.3206 5.5339C18.3974 5.60863 18.4584 5.698 18.5001 5.79672C18.5417 5.89543 18.5632 6.0015 18.5632 6.10865C18.5632 6.2158 18.5417 6.32186 18.5001 6.42058C18.4584 6.51929 18.3974 6.60866 18.3206 6.6834L14.8052 10.1328Z" stroke="#202224" stroke-width="1.5" stroke-linecap="round" stroke-linejoin="round"/>
<path d="M17.5707 4.7997L19.9449 2.4237M19.9449 2.4237L18.6203 1.09912M19.9449 2.4237L21.2695 3.74829M5.31396 14.3459H9.95046M6.0363 20.9688H18.6203M12.6592 18.3196V20.9688" stroke="#202224" stroke-width="1.5" stroke-linecap="round" stroke-linejoin="round"/>
</g>
<defs>
<clipPath id="clip0_2588_2499">
<rect width="22" height="22" fill="white"/>
</clipPath>
</defs>
</svg>
