<svg width="18" height="4" viewBox="0 0 18 4" fill="none" xmlns="http://www.w3.org/2000/svg">
<path d="M2.92 1.99996C2.92 1.74535 2.81886 1.50117 2.63882 1.32114C2.45879 1.1411 2.21461 1.03996 1.96 1.03996C1.70539 1.03996 1.46121 1.1411 1.28118 1.32114C1.10114 1.50117 1 1.74535 1 1.99996C1 2.25457 1.10114 2.49875 1.28118 2.67878C1.46121 2.85882 1.70539 2.95996 1.96 2.95996C2.21461 2.95996 2.45879 2.85882 2.63882 2.67878C2.81886 2.49875 2.92 2.25457 2.92 1.99996ZM9.96 1.99996C9.96 1.74535 9.85886 1.50117 9.67882 1.32114C9.49879 1.1411 9.25461 1.03996 9 1.03996C8.74539 1.03996 8.50121 1.1411 8.32118 1.32114C8.14114 1.50117 8.04 1.74535 8.04 1.99996C8.04 2.25457 8.14114 2.49875 8.32118 2.67878C8.50121 2.85882 8.74539 2.95996 9 2.95996C9.25461 2.95996 9.49879 2.85882 9.67882 2.67878C9.85886 2.49875 9.96 2.25457 9.96 1.99996ZM17 1.99996C17 1.74535 16.8989 1.50117 16.7188 1.32114C16.5388 1.1411 16.2946 1.03996 16.04 1.03996C15.7854 1.03996 15.5412 1.1411 15.3612 1.32114C15.1811 1.50117 15.08 1.74535 15.08 1.99996C15.08 2.25457 15.1811 2.49875 15.3612 2.67878C15.5412 2.85882 15.7854 2.95996 16.04 2.95996C16.2946 2.95996 16.5388 2.85882 16.7188 2.67878C16.8989 2.49875 17 2.25457 17 1.99996Z" stroke="#252C62" stroke-width="1.5" stroke-linecap="round" stroke-linejoin="round"/>
</svg>
