<svg width="24" height="24" viewBox="0 0 24 24" fill="none" xmlns="http://www.w3.org/2000/svg">
<path d="M15 6C15 4.34315 13.6569 3 12 3C10.3431 3 9 4.34315 9 6V11C9 12.6569 10.3431 14 12 14C13.6569 14 15 12.6569 15 11V6Z" stroke="#252C62" stroke-width="2" stroke-linejoin="round"/>
<path d="M5 11C5 11.9193 5.18106 12.8295 5.53284 13.6788C5.88463 14.5281 6.40024 15.2997 7.05025 15.9497C7.70026 16.5998 8.47194 17.1154 9.32122 17.4672C10.1705 17.8189 11.0807 18 12 18C12.9193 18 13.8295 17.8189 14.6788 17.4672C15.5281 17.1154 16.2997 16.5998 16.9497 15.9497C17.5998 15.2997 18.1154 14.5281 18.4672 13.6788C18.8189 12.8295 19 11.9193 19 11M12 21V19" stroke="#252C62" stroke-width="2" stroke-linecap="round" stroke-linejoin="round"/>
</svg>
