<svg width="24" height="24" viewBox="0 0 24 24" fill="none" xmlns="http://www.w3.org/2000/svg">
<path d="M12.0001 21.9416C10.0338 21.9416 8.11158 21.3585 6.47663 20.2661C4.84168 19.1737 3.56739 17.6209 2.8149 15.8043C2.06241 13.9876 1.86553 11.9886 2.24914 10.06C2.63276 8.13147 3.57964 6.35998 4.97005 4.96957C6.36047 3.57915 8.13196 2.63227 10.0605 2.24865C11.9891 1.86504 13.9881 2.06192 15.8047 2.81441C17.6214 3.5669 19.1741 4.84119 20.2666 6.47614C21.359 8.1111 21.9421 10.0333 21.9421 11.9996C21.9392 14.6355 20.8908 17.1626 19.027 19.0265C17.1631 20.8903 14.636 21.9387 12.0001 21.9416ZM12.0001 3.05762C10.2315 3.05762 8.50271 3.58206 7.0322 4.56462C5.5617 5.54718 4.41558 6.94373 3.73878 8.57767C3.06198 10.2116 2.8849 12.0095 3.22993 13.7441C3.57496 15.4787 4.4266 17.072 5.67716 18.3226C6.92772 19.5731 8.52103 20.4248 10.2556 20.7698C11.9902 21.1148 13.7881 20.9378 15.4221 20.261C17.056 19.5842 18.4526 18.438 19.4351 16.9675C20.4177 15.497 20.9421 13.7682 20.9421 11.9996C20.94 9.62871 19.9972 7.3555 18.3207 5.67901C16.6442 4.00252 14.371 3.05974 12.0001 3.05762Z" fill="#252C62"/>
<path d="M16.6928 13.7441C16.323 14.6877 15.6773 15.498 14.8401 16.0692C14.0028 16.6403 13.0128 16.9458 11.9993 16.9458C10.9857 16.9458 9.99576 16.6403 9.15849 16.0692C8.32122 15.498 7.67557 14.6877 7.30578 13.7441C7.05678 13.1541 6.19478 13.6631 6.44278 14.2491C6.90199 15.3439 7.6744 16.2787 8.66305 16.9362C9.65169 17.5936 10.8125 17.9443 11.9998 17.9443C13.187 17.9443 14.3479 17.5936 15.3365 16.9362C16.3251 16.2787 17.0976 15.3439 17.5568 14.2491C17.8038 13.6631 16.9428 13.1491 16.6928 13.7441Z" fill="#252C62"/>
<path d="M9 10.2607C9.69036 10.2607 10.25 9.7011 10.25 9.01074C10.25 8.32039 9.69036 7.76074 9 7.76074C8.30964 7.76074 7.75 8.32039 7.75 9.01074C7.75 9.7011 8.30964 10.2607 9 10.2607Z" fill="#252C62"/>
<path d="M15 10.2607C15.6904 10.2607 16.25 9.7011 16.25 9.01074C16.25 8.32039 15.6904 7.76074 15 7.76074C14.3096 7.76074 13.75 8.32039 13.75 9.01074C13.75 9.7011 14.3096 10.2607 15 10.2607Z" fill="#252C62"/>
</svg>
