<svg width="20" height="18" viewBox="0 0 20 18" fill="none" xmlns="http://www.w3.org/2000/svg">
<path fill-rule="evenodd" clip-rule="evenodd" d="M10.1015 0.588257C6.93687 0.588245 4.2173 2.5155 3.0468 5.26136H1.74103C0.944209 5.26136 0.293945 5.9138 0.293945 6.71142V9.84033C0.293945 10.638 0.944209 11.2904 1.74103 11.2904H3.25354C3.25663 11.2902 3.25972 11.2899 3.26281 11.2895C3.27102 11.2891 3.27921 11.2883 3.28736 11.2872C3.30968 11.2848 3.33167 11.2799 3.35293 11.2727C3.35727 11.272 3.36159 11.2713 3.3659 11.2704C3.40446 11.255 3.4395 11.232 3.46888 11.2026C3.47005 11.2015 3.47121 11.2003 3.47235 11.1992C3.49859 11.1723 3.51967 11.1409 3.53456 11.1065C3.53576 11.1038 3.53692 11.1011 3.53803 11.0984C3.54451 11.0822 3.54959 11.0654 3.55321 11.0484C3.55406 11.0445 3.55483 11.0406 3.55553 11.0368C3.55821 11.0217 3.55976 11.0064 3.56016 10.991C3.56041 10.9887 3.56063 10.9864 3.56083 10.9841C3.56076 10.9833 3.56068 10.9825 3.5606 10.9817C3.56036 10.9654 3.55881 10.9491 3.55597 10.933C3.55496 10.9274 3.5538 10.9218 3.55249 10.9163C3.54919 10.9014 3.54478 10.8867 3.53929 10.8724C3.539 10.8717 3.53873 10.8712 3.53843 10.8701C3.53767 10.8685 3.5369 10.867 3.53611 10.8654C3.21269 10.0408 3.04658 9.16249 3.04658 8.27628C3.04658 7.36961 3.2164 6.50325 3.52549 5.70705C3.53452 5.68938 3.54181 5.67088 3.54727 5.6518C4.58565 3.04249 7.12713 1.20161 10.1019 1.20161C13.0767 1.20161 15.6182 3.04258 16.6565 5.65199C16.6619 5.67094 16.6692 5.68933 16.6782 5.70689C16.9873 6.50315 17.1571 7.36956 17.1571 8.27629C17.1571 9.17485 16.9887 10.04 16.6793 10.8385C16.6669 10.8611 16.6573 10.8852 16.6509 10.9102C15.816 12.9972 14.013 14.6159 11.7347 15.1586C11.4643 14.7049 10.9693 14.3991 10.4061 14.3991C9.55537 14.3991 8.85994 15.0969 8.85994 15.9486C8.85994 16.8003 9.55537 17.4981 10.4061 17.4981C11.2569 17.4981 11.9524 16.8003 11.9524 15.9486C11.9524 15.8778 11.9478 15.8081 11.9381 15.7398C14.3272 15.1497 16.2296 13.465 17.1557 11.2908H18.4623C19.2591 11.2908 19.9094 10.6383 19.9094 9.84067V6.71176C19.9094 5.91414 19.2591 5.2617 18.4623 5.2617H17.1566C15.9861 2.51583 13.2662 0.588245 10.1015 0.588257ZM10.1015 2.90775C7.14714 2.90776 4.74637 5.31553 4.74659 8.27639C4.74659 8.27626 4.74659 8.27653 4.74659 8.27639C4.74775 9.12791 4.95354 9.96566 5.34129 10.7219L4.38328 13.6054C4.36535 13.6594 4.36281 13.7173 4.37595 13.7727C4.38909 13.8281 4.41739 13.8787 4.45767 13.9189C4.49796 13.9591 4.54864 13.9873 4.60404 14.0003C4.65944 14.0133 4.71738 14.0107 4.77135 13.9926L7.6347 13.0351C8.39612 13.4324 9.2414 13.6432 10.1012 13.644C10.1011 13.644 10.1013 13.644 10.1012 13.644C13.0552 13.644 15.456 11.2369 15.4564 8.27639C15.4566 5.31553 13.0559 2.90776 10.1015 2.90775ZM10.1015 3.52067C12.7238 3.52069 14.8437 5.64586 14.8435 8.27633C14.8432 10.9064 12.7235 13.0309 10.1018 13.031C9.29946 13.0303 8.51055 12.8254 7.80865 12.4356C7.77146 12.4149 7.73038 12.4022 7.68802 12.3983C7.64566 12.3944 7.60295 12.3994 7.56261 12.4129L5.15824 13.217L5.9631 10.7943C5.97635 10.7544 5.98126 10.7122 5.97751 10.6703C5.97377 10.6285 5.96145 10.5878 5.94132 10.5509C5.56085 9.85343 5.36077 9.07137 5.35949 8.27632C5.35949 8.27624 5.35949 8.27642 5.35949 8.27632C5.35955 5.64607 7.47944 3.52067 10.1015 3.52067ZM1.74103 5.87429H2.81629C2.5681 6.63015 2.43332 7.43737 2.43332 8.27591C2.43333 9.09277 2.56366 9.90329 2.81763 10.6775H1.74103C1.27404 10.6775 0.906874 10.3099 0.906874 9.84033V6.71142C0.906874 6.2419 1.27404 5.87429 1.74103 5.87429ZM17.3868 5.87429H18.462C18.9289 5.87429 19.2961 6.2419 19.2961 6.71142V9.84033C19.2961 10.3099 18.9289 10.6775 18.462 10.6775H17.386C17.6354 9.91821 17.7697 9.11012 17.7697 8.27591C17.7697 7.43737 17.635 6.63015 17.3868 5.87429ZM7.42371 7.80672C7.17333 7.81367 6.96851 8.02241 6.96851 8.27486C6.96851 8.53134 7.18005 8.74509 7.43585 8.74509C7.69164 8.74509 7.90316 8.53134 7.90316 8.27486C7.90316 8.0184 7.69164 7.80672 7.43585 7.80672C7.43238 7.80672 7.42777 7.80664 7.42371 7.80672ZM10.0894 7.80672C9.839 7.81367 9.63417 8.02241 9.63417 8.27486C9.63417 8.53134 9.8457 8.74509 10.1015 8.74509C10.3573 8.74509 10.5688 8.53134 10.5688 8.27486C10.5688 8.0184 10.3573 7.80672 10.1015 7.80672C10.098 7.80672 10.0933 7.80664 10.0894 7.80672ZM12.755 7.80672C12.5047 7.81367 12.2998 8.02241 12.2998 8.27486C12.2998 8.53134 12.5114 8.74509 12.7672 8.74509C13.023 8.74509 13.2345 8.53134 13.2345 8.27486C13.2345 8.0184 13.023 7.80672 12.7672 7.80672C12.7637 7.80672 12.7591 7.80664 12.755 7.80672ZM10.4058 15.0117C10.9244 15.0117 11.3391 15.427 11.3391 15.9483C11.3391 16.4696 10.9244 16.8848 10.4058 16.8848C9.88712 16.8848 9.47249 16.4696 9.47249 15.9483C9.47249 15.427 9.88712 15.0117 10.4058 15.0117Z" fill="#202224"/>
<path d="M4.74659 8.27639C4.74637 5.31552 7.14714 2.90776 10.1015 2.90775C13.0559 2.90776 15.4566 5.31552 15.4564 8.27639C15.456 11.2369 13.0552 13.644 10.1012 13.644M4.74659 8.27639C4.74659 8.27653 4.74659 8.27626 4.74659 8.27639ZM4.74659 8.27639C4.74774 9.12791 4.95354 9.96566 5.34129 10.7219L4.38328 13.6054C4.36535 13.6594 4.36281 13.7173 4.37595 13.7727C4.38909 13.8281 4.41739 13.8787 4.45767 13.9189C4.49796 13.9591 4.54864 13.9873 4.60404 14.0003C4.65945 14.0133 4.71738 14.0107 4.77135 13.9926L7.6347 13.0351C8.39612 13.4324 9.2414 13.6432 10.1012 13.644M10.1012 13.644C10.1013 13.644 10.1011 13.644 10.1012 13.644ZM5.35949 8.27632C5.36077 9.07137 5.56085 9.85343 5.94132 10.5509C5.96145 10.5878 5.97377 10.6285 5.97751 10.6703C5.98126 10.7122 5.97635 10.7544 5.9631 10.7943L5.15824 13.217L7.56261 12.4129C7.60295 12.3994 7.64566 12.3944 7.68802 12.3983C7.73038 12.4022 7.77146 12.4149 7.80865 12.4356C8.51055 12.8254 9.29946 13.0303 10.1018 13.031C12.7235 13.0309 14.8432 10.9064 14.8435 8.27633C14.8437 5.64586 12.7238 3.52069 10.1015 3.52067C7.47944 3.52067 5.35955 5.64607 5.35949 8.27632ZM5.35949 8.27632C5.35949 8.27624 5.35949 8.27642 5.35949 8.27632ZM10.1015 0.588257C6.93687 0.588245 4.2173 2.5155 3.0468 5.26136H1.74103C0.944209 5.26136 0.293945 5.9138 0.293945 6.71142V9.84033C0.293945 10.638 0.944209 11.2904 1.74103 11.2904H3.25354C3.25663 11.2902 3.25972 11.2899 3.26281 11.2895C3.27102 11.2891 3.27921 11.2883 3.28736 11.2872C3.30968 11.2848 3.33167 11.2799 3.35293 11.2727C3.35727 11.2721 3.36159 11.2713 3.3659 11.2704C3.40446 11.255 3.4395 11.232 3.46888 11.2026C3.47005 11.2015 3.47121 11.2003 3.47235 11.1992C3.49859 11.1724 3.51967 11.1409 3.53456 11.1065C3.53576 11.1038 3.53691 11.1011 3.53803 11.0984C3.54451 11.0822 3.54959 11.0654 3.55321 11.0484C3.55406 11.0445 3.55483 11.0406 3.55553 11.0368C3.55821 11.0217 3.55976 11.0064 3.56016 10.991C3.56041 10.9887 3.56063 10.9864 3.56083 10.9841C3.56076 10.9833 3.56068 10.9825 3.5606 10.9817C3.56036 10.9654 3.55881 10.9491 3.55597 10.933C3.55496 10.9274 3.5538 10.9218 3.55249 10.9163C3.54919 10.9014 3.54478 10.8867 3.53929 10.8724C3.539 10.8717 3.53873 10.8712 3.53843 10.8701C3.53767 10.8685 3.5369 10.867 3.53611 10.8654C3.21269 10.0408 3.04658 9.16249 3.04658 8.27628C3.04658 7.36961 3.2164 6.50325 3.52549 5.70705C3.53452 5.68938 3.54181 5.67088 3.54727 5.6518C4.58565 3.04249 7.12713 1.20161 10.1019 1.20161C13.0767 1.20161 15.6182 3.04258 16.6565 5.65199C16.6619 5.67094 16.6692 5.68933 16.6782 5.70689C16.9873 6.50315 17.1571 7.36956 17.1571 8.27629C17.1571 9.17485 16.9887 10.04 16.6793 10.8385C16.6669 10.8611 16.6573 10.8852 16.6509 10.9102C15.816 12.9972 14.013 14.6159 11.7347 15.1586C11.4643 14.7049 10.9693 14.3991 10.4061 14.3991C9.55537 14.3991 8.85994 15.0969 8.85994 15.9486C8.85994 16.8003 9.55537 17.4981 10.4061 17.4981C11.2569 17.4981 11.9524 16.8003 11.9524 15.9486C11.9524 15.8778 11.9478 15.8081 11.9381 15.7398C14.3272 15.1497 16.2296 13.465 17.1557 11.2908H18.4623C19.2591 11.2908 19.9094 10.6383 19.9094 9.84067V6.71176C19.9094 5.91414 19.2591 5.2617 18.4623 5.2617H17.1566C15.9861 2.51583 13.2662 0.588245 10.1015 0.588257ZM1.74103 5.87429H2.81629C2.5681 6.63015 2.43332 7.43737 2.43332 8.27591C2.43333 9.09277 2.56366 9.90329 2.81763 10.6775H1.74103C1.27404 10.6775 0.906874 10.3099 0.906874 9.84033V6.71142C0.906874 6.2419 1.27404 5.87429 1.74103 5.87429ZM17.3868 5.87429H18.462C18.9289 5.87429 19.2961 6.2419 19.2961 6.71142V9.84033C19.2961 10.3099 18.9289 10.6775 18.462 10.6775H17.386C17.6354 9.91821 17.7697 9.11012 17.7697 8.27591C17.7697 7.43737 17.635 6.63015 17.3868 5.87429ZM7.42371 7.80672C7.17333 7.81367 6.96851 8.02241 6.96851 8.27486C6.96851 8.53134 7.18005 8.74509 7.43585 8.74509C7.69164 8.74509 7.90316 8.53134 7.90316 8.27486C7.90316 8.0184 7.69164 7.80672 7.43585 7.80672C7.43238 7.80672 7.42777 7.80664 7.42371 7.80672ZM10.0894 7.80672C9.839 7.81367 9.63417 8.02241 9.63417 8.27486C9.63417 8.53134 9.8457 8.74509 10.1015 8.74509C10.3573 8.74509 10.5688 8.53134 10.5688 8.27486C10.5688 8.0184 10.3573 7.80672 10.1015 7.80672C10.098 7.80672 10.0933 7.80664 10.0894 7.80672ZM12.755 7.80672C12.5047 7.81367 12.2998 8.02241 12.2998 8.27486C12.2998 8.53134 12.5114 8.74509 12.7672 8.74509C13.023 8.74509 13.2345 8.53134 13.2345 8.27486C13.2345 8.0184 13.023 7.80672 12.7672 7.80672C12.7637 7.80672 12.7591 7.80664 12.755 7.80672ZM10.4058 15.0117C10.9244 15.0117 11.3391 15.427 11.3391 15.9483C11.3391 16.4696 10.9244 16.8848 10.4058 16.8848C9.88712 16.8848 9.47249 16.4696 9.47249 15.9483C9.47249 15.427 9.88712 15.0117 10.4058 15.0117Z" stroke="#202224" stroke-width="0.2"/>
</svg>
