<svg width="70" height="70" viewBox="0 0 70 70" fill="none" xmlns="http://www.w3.org/2000/svg">
<path opacity="0.5" d="M35 68.8334C54.33 68.8334 70 53.4245 70 34.4167C70 15.4089 54.33 0 35 0C15.67 0 0 15.4089 0 34.4167C0 53.4245 15.67 68.8334 35 68.8334Z" fill="#E9EBFF"/>
<path fill-rule="evenodd" clip-rule="evenodd" d="M26.8125 26.0063C26.8125 21.1104 30.3614 17 34.9933 17C39.6254 17 43.1876 21.1104 43.1876 26.0063C43.1876 30.9021 39.6254 35.0126 34.9933 35.0126C30.3614 35.0126 26.8125 30.9021 26.8125 26.0063ZM32.9054 37.162L32.8405 37.2287L32.97 37.2289L34.9922 39.3193L37.0189 37.2333L37.1484 37.2334L37.0838 37.1666L38.5706 35.6363C38.7857 35.4182 39.1242 35.3042 39.4456 35.3411C47.2277 36.2548 53.5152 39.4265 54.9622 43.9581C55.0126 44.1179 55.0126 51.1744 54.9622 51.3342C54.1053 54.0176 15.8947 54.0176 15.0378 51.3342C14.9874 51.1744 14.9874 44.1179 15.0378 43.9581C16.4849 39.4265 22.7725 36.2548 30.5544 35.3411C30.8759 35.3041 31.2144 35.4182 31.4295 35.6363L32.9054 37.162ZM18.0171 44.5425C17.9799 44.6307 17.9463 44.7192 17.9162 44.808C17.9664 44.6646 17.9901 44.6709 18.0021 44.6741C18.0135 44.6772 18.0143 44.6774 18.0171 44.5425ZM18.0166 50.7283L18.0171 50.7391L18.0191 50.8443L18.0178 50.7825L18.0166 50.7283ZM18.0119 50.6263L18.0166 50.7283C18.0153 50.6675 18.0143 50.6392 18.0119 50.6263ZM52.0943 44.8396C52.0397 44.6757 52.0133 44.6737 51.9999 44.6757L52.022 44.6387C52.0481 44.7055 52.0722 44.7725 52.0943 44.8396Z" fill="#28328C"/>
<path fill-rule="evenodd" clip-rule="evenodd" d="M40.605 40.375C40.3289 40.375 40.105 40.5989 40.105 40.875V43.3749H37.605C37.3289 43.3749 37.105 43.5987 37.105 43.8749V44.8749C37.105 45.151 37.3289 45.3749 37.605 45.3749H40.105V47.875C40.105 48.1511 40.3289 48.375 40.605 48.375H41.605C41.8812 48.375 42.105 48.1511 42.105 47.875V45.3749H44.605C44.8812 45.3749 45.105 45.151 45.105 44.8749V43.8749C45.105 43.5987 44.8812 43.3749 44.605 43.3749H42.105V40.875C42.105 40.5989 41.8812 40.375 41.605 40.375H40.605Z" fill="#02A401"/>
</svg>
