<svg width="40" height="37" viewBox="0 0 40 37" fill="none" xmlns="http://www.w3.org/2000/svg">
<path fill-rule="evenodd" clip-rule="evenodd" d="M11.8125 9.0063C11.8125 4.1104 15.3614 0 19.9933 0C24.6254 0 28.1876 4.1104 28.1876 9.0063C28.1876 13.9021 24.6254 18.0126 19.9933 18.0126C15.3614 18.0126 11.8125 13.9021 11.8125 9.0063ZM17.9054 20.162L17.8405 20.2287L17.97 20.2289L19.9922 22.3193L22.0189 20.2333L22.1484 20.2334L22.0838 20.1666L23.5706 18.6363C23.7857 18.4182 24.1242 18.3042 24.4456 18.3411C32.2277 19.2548 38.5152 22.4265 39.9622 26.9581C40.0126 27.1179 40.0126 34.1744 39.9622 34.3342C39.1053 37.0176 0.8947 37.0176 0.0378 34.3342C-0.0126 34.1744 -0.0126 27.1179 0.0378 26.9581C1.4849 22.4265 7.7725 19.2548 15.5544 18.3411C15.8759 18.3041 16.2144 18.4182 16.4295 18.6363L17.9054 20.162ZM3.0171 27.5425C2.9799 27.6307 2.9463 27.7192 2.9162 27.808C2.9664 27.6646 2.9901 27.6709 3.0021 27.6741C3.0135 27.6772 3.0143 27.6774 3.0171 27.5425ZM3.0166 33.7283L3.0171 33.7391L3.0191 33.8443L3.0178 33.7825L3.0166 33.7283ZM3.0119 33.6263L3.0166 33.7283C3.0153 33.6675 3.0143 33.6392 3.0119 33.6263ZM37.0943 27.8396C37.0397 27.6757 37.0133 27.6737 36.9999 27.6757L37.022 27.6387C37.0481 27.7055 37.0722 27.7725 37.0943 27.8396Z" fill="#28328C"/>
</svg>
