<svg width="70" height="70" viewBox="0 0 70 70" fill="none" xmlns="http://www.w3.org/2000/svg">
<g clip-path="url(#clip0_2644_9073)">
<path opacity="0.5" d="M35 70C54.33 70 70 54.33 70 35C70 15.67 54.33 0 35 0C15.67 0 0 15.67 0 35C0 54.33 15.67 70 35 70Z" fill="#E9EBFF"/>
<path d="M19.4443 20.1914C19.4443 19.0868 20.3397 18.1914 21.4443 18.1914H40.185L50.5554 29.1067V52.5756C50.5554 53.6802 49.6599 54.5756 48.5554 54.5756H21.4443C20.3397 54.5756 19.4443 53.6802 19.4443 52.5756V20.1914Z" fill="#28328C"/>
<path fill-rule="evenodd" clip-rule="evenodd" d="M29.0046 24.0391C29.0046 23.6248 28.6688 23.2891 28.2546 23.2891H28.0319C27.6177 23.2891 27.2819 23.6248 27.2819 24.0391V25.9256H25.3794C24.9652 25.9256 24.6294 26.2614 24.6294 26.6756V26.9333C24.6294 27.3475 24.9652 27.6833 25.3794 27.6833H27.2819V29.5698C27.2819 29.984 27.6177 30.3198 28.0319 30.3198H28.2546C28.6688 30.3198 29.0046 29.984 29.0046 29.5698V27.6833H30.793C31.2072 27.6833 31.543 27.3475 31.543 26.9333V26.6756C31.543 26.2614 31.2072 25.9256 30.793 25.9256H29.0046V24.0391Z" fill="white"/>
<path d="M25.4185 39.209H42.7024" stroke="white" stroke-width="1.5" stroke-linecap="round"/>
<path d="M25.4185 45.6562H35.7889" stroke="white" stroke-width="1.5" stroke-linecap="round"/>
<path d="M58.7467 22.9024C58.7467 28.7538 54.0862 33.4713 48.3689 33.4713C42.6517 33.4713 37.9912 28.7538 37.9912 22.9024C37.9912 17.051 42.6517 12.3335 48.3689 12.3335C54.0862 12.3335 58.7467 17.051 58.7467 22.9024Z" fill="#00A557" stroke="#00A557" stroke-width="1.8"/>
<path d="M52.8924 19.7754L46.556 26.2186L43.6982 23.0074" stroke="white" stroke-width="1.5" stroke-linecap="round" stroke-linejoin="round"/>
</g>
<defs>
<clipPath id="clip0_2644_9073">
<rect width="70" height="70" fill="white"/>
</clipPath>
</defs>
</svg>
