<svg width="70" height="70" viewBox="0 0 70 70" fill="none" xmlns="http://www.w3.org/2000/svg">
<g clip-path="url(#clip0_2644_9081)">
<path opacity="0.5" d="M35 70C54.33 70 70 54.33 70 35C70 15.67 54.33 0 35 0C15.67 0 0 15.67 0 35C0 54.33 15.67 70 35 70Z" fill="#E9EBFF"/>
<path d="M19.2766 25.6262C19.2766 24.2442 18.737 22.9186 17.776 21.94C16.8151 20.9614 15.5113 20.4097 14.1504 20.4059C15.5113 20.402 16.8151 19.8503 17.776 18.8717C18.737 17.8932 19.2766 16.5676 19.2766 15.1855C19.2766 16.5701 19.8181 17.8979 20.7822 18.8769C21.7462 19.8559 23.0537 20.4059 24.4171 20.4059C23.0537 20.4059 21.7462 20.9559 20.7822 21.9349C19.8181 22.9139 19.2766 24.2417 19.2766 25.6262Z" fill="#118A10"/>
<path d="M24.8851 28.4743C24.8843 27.8451 24.6379 27.2419 24.2001 26.7973C23.7624 26.3526 23.169 26.1029 22.5503 26.1029C23.1692 26.1021 23.7627 25.8517 24.2004 25.4066C24.638 24.9615 24.8843 24.358 24.8851 23.7285C24.8851 24.3577 25.1307 24.9612 25.5679 25.4064C26.0051 25.8516 26.5982 26.1021 27.2169 26.1029C26.5985 26.1029 26.0054 26.3527 25.5681 26.7975C25.1307 27.2422 24.8851 27.8453 24.8851 28.4743Z" fill="#118A10"/>
<path d="M24.4181 18.0329C24.4175 17.5296 24.2204 17.047 23.8702 16.6913C23.5199 16.3356 23.0452 16.1358 22.5503 16.1358C23.0454 16.1352 23.5202 15.9349 23.8703 15.5788C24.2205 15.2227 24.4175 14.7399 24.4181 14.2363C24.4181 14.7397 24.6146 15.2225 24.9644 15.5786C25.3142 15.9348 25.7886 16.1352 26.2836 16.1358C25.7888 16.1358 25.3143 16.3357 24.9645 16.6915C24.6146 17.0473 24.4181 17.5298 24.4181 18.0329Z" fill="#118A10"/>
<path d="M36.1666 48.2776L27.901 52.5412C27.039 52.9858 25.9859 52.6356 25.5487 51.7591C25.3825 51.4259 25.3236 51.0479 25.3804 50.6788L26.8135 41.367L20.272 34.6902C19.5898 33.9939 19.5919 32.8671 20.2765 32.1734C20.5368 31.9097 20.872 31.736 21.2348 31.6769L30.3861 30.1854L34.6088 21.7954C35.0492 20.9204 36.1036 20.5742 36.964 21.022C37.291 21.1922 37.557 21.4628 37.7244 21.7954L41.9472 30.1854L51.0985 31.6769C52.0528 31.8324 52.7025 32.7452 52.5495 33.7157C52.4914 34.0846 52.3206 34.4256 52.0613 34.6902L45.5198 41.367L46.9528 50.6788C47.1023 51.6499 46.4493 52.5603 45.4945 52.7123C45.1315 52.77 44.7599 52.7102 44.4323 52.5412L36.1666 48.2776Z" fill="#28328C"/>
</g>
<defs>
<clipPath id="clip0_2644_9081">
<rect width="70" height="70" fill="white"/>
</clipPath>
</defs>
</svg>
