<svg width="18" height="18" viewBox="0 0 18 18" fill="none" xmlns="http://www.w3.org/2000/svg">
<path d="M6.85547 12.5776H9.36047C9.64491 12.5776 9.91771 12.4646 10.1188 12.2635C10.32 12.0623 10.433 11.7895 10.433 11.5051C10.433 11.2207 10.32 10.9479 10.1188 10.7467C9.91771 10.5456 9.64491 10.4326 9.36047 10.4326H8.61047C8.32602 10.4326 8.05323 10.3196 7.8521 10.1185C7.65096 9.91734 7.53797 9.64454 7.53797 9.3601C7.53797 9.07565 7.65096 8.80286 7.8521 8.60173C8.05323 8.40059 8.32602 8.2876 8.61047 8.2876H11.1155" stroke="#6AC17A" stroke-miterlimit="10"/>
<path d="M9 6.13501V8.28751" stroke="#6AC17A" stroke-miterlimit="10"/>
<path d="M9 12.5774V14.7299" stroke="#6AC17A" stroke-miterlimit="10"/>
<path d="M15.4426 4.7025V16.875H2.55762V1.125H11.8651L15.4426 4.7025Z" stroke="#6AC17A" stroke-miterlimit="10"/>
<path d="M15.442 4.7025V5.4225H11.1445V1.125H11.8645L15.442 4.7025Z" stroke="#6AC17A" stroke-miterlimit="10"/>
</svg>
