<svg width="12" height="12" viewBox="0 0 12 12" fill="none" xmlns="http://www.w3.org/2000/svg">
<path d="M5.14822 3.33929C5.07062 3.33929 4.99619 3.36935 4.94132 3.42285C4.88644 3.47636 4.85561 3.54892 4.85561 3.62459C4.85561 3.70025 4.88644 3.77282 4.94132 3.82632C4.99619 3.87982 5.07062 3.90988 5.14822 3.90988H6.90386C6.98147 3.90988 7.05589 3.87982 7.11077 3.82632C7.16564 3.77282 7.19647 3.70025 7.19647 3.62459C7.19647 3.54892 7.16564 3.47636 7.11077 3.42285C7.05589 3.36935 6.98147 3.33929 6.90386 3.33929H5.14822ZM4.56301 6.4775C4.56301 6.62883 4.50135 6.77396 4.3916 6.88097C4.28185 6.98797 4.133 7.04809 3.97779 7.04809C3.82258 7.04809 3.67373 6.98797 3.56398 6.88097C3.45423 6.77396 3.39258 6.62883 3.39258 6.4775C3.39258 6.32618 3.45423 6.18105 3.56398 6.07404C3.67373 5.96704 3.82258 5.90692 3.97779 5.90692C4.133 5.90692 4.28185 5.96704 4.3916 6.07404C4.50135 6.18105 4.56301 6.32618 4.56301 6.4775ZM4.56301 8.47455C4.56301 8.62588 4.50135 8.77101 4.3916 8.87801C4.28185 8.98502 4.133 9.04513 3.97779 9.04513C3.82258 9.04513 3.67373 8.98502 3.56398 8.87801C3.45423 8.77101 3.39258 8.62588 3.39258 8.47455C3.39258 8.32322 3.45423 8.17809 3.56398 8.07108C3.67373 7.96408 3.82258 7.90396 3.97779 7.90396C4.133 7.90396 4.28185 7.96408 4.3916 8.07108C4.50135 8.17809 4.56301 8.32322 4.56301 8.47455ZM6.02604 7.04809C6.18125 7.04809 6.3301 6.98797 6.43985 6.88097C6.5496 6.77396 6.61126 6.62883 6.61126 6.4775C6.61126 6.32618 6.5496 6.18105 6.43985 6.07404C6.3301 5.96704 6.18125 5.90692 6.02604 5.90692C5.87083 5.90692 5.72198 5.96704 5.61223 6.07404C5.50248 6.18105 5.44083 6.32618 5.44083 6.4775C5.44083 6.62883 5.50248 6.77396 5.61223 6.88097C5.72198 6.98797 5.87083 7.04809 6.02604 7.04809ZM6.61126 8.47455C6.61126 8.62588 6.5496 8.77101 6.43985 8.87801C6.3301 8.98502 6.18125 9.04513 6.02604 9.04513C5.87083 9.04513 5.72198 8.98502 5.61223 8.87801C5.50248 8.77101 5.44083 8.62588 5.44083 8.47455C5.44083 8.32322 5.50248 8.17809 5.61223 8.07108C5.72198 7.96408 5.87083 7.90396 6.02604 7.90396C6.18125 7.90396 6.3301 7.96408 6.43985 8.07108C6.5496 8.17809 6.61126 8.32322 6.61126 8.47455ZM8.07429 7.04809C8.2295 7.04809 8.37835 6.98797 8.4881 6.88097C8.59785 6.77396 8.6595 6.62883 8.6595 6.4775C8.6595 6.32618 8.59785 6.18105 8.4881 6.07404C8.37835 5.96704 8.2295 5.90692 8.07429 5.90692C7.91908 5.90692 7.77023 5.96704 7.66048 6.07404C7.55073 6.18105 7.48908 6.32618 7.48908 6.4775C7.48908 6.62883 7.55073 6.77396 7.66048 6.88097C7.77023 6.98797 7.91908 7.04809 8.07429 7.04809Z" fill="white"/>
<path fill-rule="evenodd" clip-rule="evenodd" d="M3.68497 1.14471C3.76257 1.14471 3.837 1.17554 3.89187 1.23042C3.94675 1.28529 3.97757 1.35972 3.97757 1.43732V2.02254H8.07407V1.43732C8.07407 1.35972 8.1049 1.28529 8.15978 1.23042C8.21465 1.17554 8.28908 1.14471 8.36668 1.14471C8.44428 1.14471 8.51871 1.17554 8.57358 1.23042C8.62846 1.28529 8.65929 1.35972 8.65929 1.43732V2.02429C8.80247 2.02546 8.93005 2.03053 9.04202 2.03951C9.25562 2.05706 9.44289 2.09393 9.61611 2.18171C9.89132 2.3221 10.115 2.54601 10.2552 2.82135C10.3435 2.99458 10.3804 3.18184 10.398 3.39486C10.4149 3.60261 10.4149 3.85835 10.4149 4.17554V8.64774C10.4149 8.96493 10.4149 9.22125 10.398 9.42783C10.3804 9.64144 10.3435 9.8287 10.2552 10.0019C10.1149 10.2771 9.89123 10.5007 9.61611 10.641C9.44289 10.7293 9.25562 10.7662 9.0426 10.7838C8.83485 10.8007 8.57911 10.8007 8.26251 10.8007H3.78972C3.47254 10.8007 3.21621 10.8007 3.00963 10.7838C2.79603 10.7662 2.60876 10.7293 2.43554 10.641C2.1602 10.5008 1.93629 10.2771 1.7959 10.0019C1.70811 9.8287 1.67125 9.64144 1.65369 9.42842C1.63672 9.22067 1.63672 8.96434 1.63672 8.64716V4.17612C1.63672 3.89815 1.63672 3.66816 1.64842 3.47562L1.65369 3.39603C1.67125 3.18243 1.70811 2.99516 1.7959 2.82194C1.93619 2.54651 2.16011 2.32259 2.43554 2.1823C2.60876 2.09452 2.79603 2.05765 3.00905 2.04009C3.1218 2.03112 3.24957 2.02605 3.39236 2.02488V1.43732C3.39236 1.35972 3.42319 1.28529 3.47806 1.23042C3.53294 1.17554 3.60736 1.14471 3.68497 1.14471ZM3.39236 2.90036V2.6095C3.28047 2.61043 3.16864 2.61492 3.05703 2.62296C2.8803 2.63701 2.77847 2.66393 2.70122 2.70314C2.5359 2.78732 2.40151 2.92172 2.31732 3.08704C2.27811 3.16429 2.25119 3.26611 2.23715 3.44285C2.22193 3.62368 2.22193 3.85543 2.22193 4.18783V4.50969H9.82971V4.18783C9.82971 3.85543 9.82972 3.62368 9.8145 3.44285C9.80046 3.26611 9.77353 3.16429 9.73433 3.08704C9.65014 2.92172 9.51574 2.78732 9.35042 2.70314C9.27318 2.66393 9.17135 2.63701 8.99461 2.62296C8.88301 2.61492 8.77118 2.61043 8.65929 2.6095V2.90036C8.65929 2.97796 8.62846 3.05239 8.57358 3.10726C8.51871 3.16214 8.44428 3.19296 8.36668 3.19296C8.28908 3.19296 8.21465 3.16214 8.15978 3.10726C8.1049 3.05239 8.07407 2.97796 8.07407 2.90036V2.60775H3.97757V2.90036C3.97757 2.97796 3.94675 3.05239 3.89187 3.10726C3.837 3.16214 3.76257 3.19296 3.68497 3.19296C3.60736 3.19296 3.53294 3.16214 3.47806 3.10726C3.42319 3.05239 3.39236 2.97796 3.39236 2.90036ZM9.82971 5.09491H2.22193V8.63545C2.22193 8.96785 2.22193 9.20018 2.23715 9.38043C2.25119 9.55717 2.27811 9.65899 2.31732 9.73624C2.40151 9.90156 2.5359 10.036 2.70122 10.1201C2.77847 10.1594 2.8803 10.1863 3.05703 10.2003C3.23786 10.2155 3.46961 10.2155 3.80201 10.2155H8.24964C8.58204 10.2155 8.81437 10.2155 8.99461 10.2003C9.17135 10.1863 9.27318 10.1594 9.35042 10.1201C9.51574 10.036 9.65014 9.90156 9.73433 9.73624C9.77353 9.65899 9.80046 9.55717 9.8145 9.38043C9.82972 9.20018 9.82971 8.96785 9.82971 8.63545V5.09491Z" fill="white"/>
</svg>
