<svg width="18" height="18" viewBox="0 0 18 18" fill="none" xmlns="http://www.w3.org/2000/svg">
<path d="M16.152 4.80103H1.84766V13.202H16.152V4.80103Z" stroke="#E04F29"/>
<path d="M4.6748 4.75879C4.67111 5.50357 4.37361 6.2168 3.84696 6.74344C3.32031 7.27009 2.60709 7.56759 1.8623 7.57129" stroke="#E04F29"/>
<path d="M4.75586 13.199C4.75586 12.4531 4.45954 11.7377 3.9321 11.2102C3.40465 10.6828 2.68928 10.3865 1.94336 10.3865" stroke="#E04F29"/>
<path d="M13.376 4.75879C13.376 5.50471 13.6723 6.22008 14.1997 6.74753C14.7272 7.27497 15.4426 7.57129 16.1885 7.57129" stroke="#E04F29"/>
<path d="M13.3252 13.199C13.3252 12.4531 13.6215 11.7377 14.149 11.2102C14.6764 10.6828 15.3918 10.3865 16.1377 10.3865" stroke="#E04F29"/>
<path d="M10.4678 7.6613C10.3608 7.40775 10.1805 7.19197 9.94993 7.04163C9.71942 6.8913 9.44924 6.81326 9.17406 6.81755C8.00687 6.81755 7.96188 7.6613 7.96188 7.6613C7.96188 7.6613 7.7875 8.69068 9.21625 8.80036C10.7013 8.91568 10.4678 9.93943 10.4678 9.93943C10.4011 10.218 10.24 10.465 10.0118 10.6383C9.78367 10.8116 9.50256 10.9005 9.21625 10.8901C8.11375 10.9463 7.77344 9.78755 7.77344 9.78755" stroke="#E04F29"/>
<path d="M9.1748 6.08618V11.7449" stroke="#E04F29"/>
</svg>
