<svg width="24" height="25" viewBox="0 0 24 25" fill="none" xmlns="http://www.w3.org/2000/svg">
<path d="M3 6.85669H5H21" stroke="#A30D11" stroke-width="2" stroke-linecap="round" stroke-linejoin="round"/>
<path d="M8 6.85669V4.85669C8 4.32626 8.21071 3.81755 8.58579 3.44248C8.96086 3.0674 9.46957 2.85669 10 2.85669H14C14.5304 2.85669 15.0391 3.0674 15.4142 3.44248C15.7893 3.81755 16 4.32626 16 4.85669V6.85669M19 6.85669V20.8567C19 21.3871 18.7893 21.8958 18.4142 22.2709C18.0391 22.646 17.5304 22.8567 17 22.8567H7C6.46957 22.8567 5.96086 22.646 5.58579 22.2709C5.21071 21.8958 5 21.3871 5 20.8567V6.85669H19Z" stroke="#A30D11" stroke-width="2" stroke-linecap="round" stroke-linejoin="round"/>
<path d="M10 11.8567V17.8567" stroke="#A30D11" stroke-width="2" stroke-linecap="round" stroke-linejoin="round"/>
<path d="M14 11.8567V17.8567" stroke="#A30D11" stroke-width="2" stroke-linecap="round" stroke-linejoin="round"/>
</svg>
