<svg width="16" height="16" viewBox="0 0 16 16" fill="none" xmlns="http://www.w3.org/2000/svg">
<path d="M2 9.17736L2.498 9.22002C2.48652 9.34808 2.42616 9.4668 2.32944 9.55151C2.23273 9.63622 2.10709 9.68043 1.97864 9.67493C1.85019 9.66944 1.72879 9.61468 1.63965 9.52202C1.55052 9.42936 1.50051 9.30593 1.5 9.17736H2ZM13.4907 7.96202L13.02 5.24203L14.006 5.07136L14.476 7.79136L13.4907 7.96202ZM8.83 1.83336H5.73067V0.833359H8.83V1.83336ZM5.12333 2.39136L4.582 8.65336L3.58533 8.56736L4.12733 2.30536L5.12333 2.39136ZM13.02 5.24203C12.682 3.28869 10.9207 1.83336 8.83 1.83336V0.833359C11.3807 0.833359 13.5807 2.61269 14.006 5.07136L13.02 5.24203ZM8.83667 12.6L8.39467 9.90336L9.38133 9.74202L9.82333 12.438L8.83667 12.6ZM4.792 9.16936L5.75133 9.99602L5.098 10.7534L4.14 9.92669L4.792 9.16936ZM7.496 12.6854L7.81333 13.908L6.84533 14.1587L6.528 12.9367L7.496 12.6854ZM8.292 14.148L8.38867 14.1167L8.69467 15.0687L8.598 15.1L8.292 14.148ZM7.01533 11.456C7.22346 11.8454 7.3848 12.2581 7.496 12.6854L6.528 12.9367C6.43614 12.5858 6.30369 12.2469 6.13333 11.9267L7.01533 11.456ZM8.38867 14.1167C8.48365 14.0876 8.56979 14.0351 8.63922 13.964C8.70864 13.893 8.75911 13.8057 8.786 13.71L9.754 13.9607C9.6854 14.2198 9.55226 14.4574 9.36702 14.6511C9.18177 14.8449 8.95046 14.9885 8.69467 15.0687L8.38867 14.1167ZM7.81333 13.908C7.82683 13.9559 7.85048 14.0004 7.88269 14.0384C7.9149 14.0763 7.95491 14.1069 8 14.128L7.566 15.0287C7.21133 14.858 6.94467 14.542 6.84533 14.1587L7.81333 13.908ZM8 14.128C8.09131 14.1713 8.19564 14.1785 8.292 14.148L8.598 15.1C8.25751 15.2089 7.88828 15.1833 7.566 15.0287L8 14.128ZM9.436 8.67736H12.8893V9.67736H9.436V8.67736ZM3.146 1.72936L2.498 9.22002L1.502 9.13402L2.14867 1.64336L3.146 1.72936ZM2.5 1.65802V9.17736H1.5V1.65802H2.5ZM2.14867 1.64336C2.14663 1.66759 2.15033 1.69197 2.15822 1.71497C2.16612 1.73796 2.17871 1.75906 2.1952 1.77693C2.21169 1.7948 2.23171 1.80904 2.254 1.81876C2.27629 1.82847 2.30035 1.83344 2.32467 1.83336V0.833359C2.80867 0.833359 3.18733 1.24802 3.146 1.72936L2.14867 1.64336ZM9.82333 12.438C9.90714 12.9448 9.88352 13.4636 9.754 13.9607L8.786 13.7094C8.88055 13.3472 8.89781 12.9693 8.83667 12.6L9.82333 12.438ZM5.73067 1.83336C5.57801 1.83362 5.43098 1.89106 5.31857 1.99434C5.20615 2.09762 5.1365 2.23927 5.12333 2.39136L4.12733 2.30536C4.16202 1.90392 4.34592 1.53006 4.64274 1.25756C4.93955 0.985051 5.32773 0.833697 5.73067 0.833359V1.83336ZM5.75133 9.99602C6.20467 10.3867 6.69267 10.8514 7.016 11.456L6.13333 11.9267C5.90267 11.494 5.53533 11.1294 5.098 10.7534L5.75133 9.99602ZM14.476 7.79136C14.5161 8.0227 14.5052 8.26002 14.444 8.48669C14.3828 8.71337 14.2727 8.92392 14.1216 9.10359C13.9704 9.28326 13.7818 9.42771 13.5689 9.52682C13.3561 9.62594 13.1241 9.67731 12.8893 9.67736V8.67736C13.2673 8.67736 13.556 8.33602 13.4907 7.96202L14.476 7.79136ZM2.32467 1.83336C2.422 1.83336 2.5 1.75469 2.5 1.65802H1.5C1.5 1.20336 1.86867 0.833359 2.32467 0.833359V1.83336ZM8.39467 9.90336C8.36981 9.7523 8.37812 9.59765 8.41901 9.45013C8.4599 9.30261 8.5324 9.16575 8.63147 9.04905C8.73054 8.93234 8.85381 8.83859 8.99274 8.77429C9.13167 8.71 9.28292 8.67736 9.436 8.67736V9.67736C9.42787 9.67732 9.41983 9.67841 9.41245 9.68184C9.40507 9.68527 9.39854 9.69028 9.39332 9.69652C9.3881 9.70275 9.38432 9.71007 9.38225 9.71793C9.38018 9.7258 9.37986 9.73402 9.38133 9.74202L8.39467 9.90336ZM4.582 8.65336C4.57387 8.74989 4.58805 8.84698 4.62467 8.93667C4.66129 9.02636 4.71863 9.1061 4.792 9.16936L4.13867 9.92736C3.94543 9.7606 3.79452 9.55037 3.69832 9.31395C3.60213 9.07753 3.56341 8.82166 3.58533 8.56736L4.582 8.65336Z" fill="#4C63BD"/>
</svg>
