<svg width="24" height="25" viewBox="0 0 24 25" fill="none" xmlns="http://www.w3.org/2000/svg">
<path d="M11 4.85669H4C3.46957 4.85669 2.96086 5.0674 2.58579 5.44248C2.21071 5.81755 2 6.32626 2 6.85669V20.8567C2 21.3871 2.21071 21.8958 2.58579 22.2709C2.96086 22.646 3.46957 22.8567 4 22.8567H18C18.5304 22.8567 19.0391 22.646 19.4142 22.2709C19.7893 21.8958 20 21.3871 20 20.8567V13.8567" stroke="#624DE3" stroke-width="2" stroke-linecap="round" stroke-linejoin="round"/>
<path d="M18.5 3.35667C18.8978 2.95885 19.4374 2.73535 20 2.73535C20.5626 2.73535 21.1022 2.95885 21.5 3.35667C21.8978 3.7545 22.1213 4.29406 22.1213 4.85667C22.1213 5.41928 21.8978 5.95885 21.5 6.35667L12 15.8567L8 16.8567L9 12.8567L18.5 3.35667Z" stroke="#624DE3" stroke-width="2" stroke-linecap="round" stroke-linejoin="round"/>
</svg>
