<svg width="32" height="33" viewBox="0 0 32 33" fill="none" xmlns="http://www.w3.org/2000/svg">
<rect x="0.192383" y="0.875427" width="31.6016" height="31.6016" rx="15.8008" fill="#B9080A"/>
<path d="M25.3783 18.8897L18.4403 25.8278C18.3015 25.9666 18.1132 26.0447 17.9168 26.0447C17.7205 26.0447 17.5321 25.9667 17.3933 25.8279C17.2544 25.6891 17.1764 25.5008 17.1764 25.3045C17.1763 25.1081 17.2543 24.9198 17.3931 24.7809L24.3312 17.8429C25.1296 17.0456 25.594 15.9737 25.6298 14.8459C25.6656 13.718 25.27 12.619 24.5237 11.7726C24.4528 11.6869 24.3949 11.624 24.3312 11.5603C23.9192 11.147 23.4297 10.819 22.8908 10.5952C22.3518 10.3715 21.774 10.2563 21.1904 10.2563C20.6068 10.2563 20.029 10.3715 19.49 10.5952C18.951 10.819 18.4615 11.147 18.0496 11.5603L16.4801 13.1297C16.3413 13.2685 16.1531 13.3465 15.9568 13.3465C15.7605 13.3465 15.5722 13.2685 15.4334 13.1297L13.8631 11.5598C13.4506 11.1474 12.9609 10.8203 12.4219 10.5971C11.883 10.374 11.3054 10.2592 10.722 10.2593C10.1387 10.2594 9.56112 10.3743 9.02223 10.5976C8.48335 10.8209 7.99372 11.1482 7.58131 11.5607C7.1689 11.9733 6.84178 12.463 6.61863 13.002C6.39548 13.5409 6.28067 14.1185 6.28076 14.7019C6.28085 15.2852 6.39582 15.8628 6.61913 16.4017C6.84244 16.9405 7.1697 17.4302 7.58223 17.8426L16.4805 26.7409C16.551 26.8092 16.6071 26.8909 16.6457 26.9811C16.6843 27.0714 16.7046 27.1684 16.7054 27.2666C16.7061 27.3647 16.6873 27.4621 16.6501 27.5529C16.6129 27.6437 16.558 27.7263 16.4886 27.7957C16.4192 27.8651 16.3366 27.92 16.2458 27.9572C16.155 27.9945 16.0576 28.0132 15.9595 28.0125C15.8613 28.0118 15.7643 27.9915 15.674 27.9529C15.5838 27.9143 15.5021 27.8582 15.4337 27.7877L6.53546 18.8894C5.98551 18.3395 5.54926 17.6866 5.25163 16.9681C4.95399 16.2495 4.80079 15.4794 4.80078 14.7017C4.80077 13.9239 4.95395 13.1538 5.25157 12.4353C5.54918 11.7167 5.98542 11.0639 6.53535 10.5139C7.08529 9.96395 7.73816 9.5277 8.4567 9.23006C9.17523 8.93242 9.94535 8.77923 10.7231 8.77922C11.5008 8.77921 12.271 8.93238 12.9895 9.23C13.708 9.52762 14.3609 9.96385 14.9109 10.5138L15.957 11.5599L17.0031 10.5138C17.5525 9.96289 18.2051 9.5258 18.9237 9.22756C19.6423 8.92933 20.4127 8.77582 21.1907 8.77582C21.9687 8.77582 22.7391 8.92933 23.4577 9.22756C24.1763 9.5258 24.829 9.96289 25.3783 10.5138C25.4781 10.6135 25.5689 10.7132 25.6508 10.8131C26.6398 11.9421 27.162 13.4052 27.1114 14.9053C27.0608 16.4053 26.4412 17.8299 25.3783 18.8897Z" fill="white"/>
</svg>
