<svg width="14" height="16" viewBox="0 0 14 16" fill="none" xmlns="http://www.w3.org/2000/svg">
<path d="M1 6.82264L1.498 6.77998C1.48652 6.65192 1.42616 6.5332 1.32944 6.44849C1.23273 6.36378 1.10709 6.31957 0.97864 6.32507C0.850186 6.33056 0.728785 6.38532 0.639652 6.47798C0.550519 6.57064 0.500506 6.69407 0.5 6.82264H1ZM12.4907 8.03798L12.02 10.758L13.006 10.9286L13.476 8.20864L12.4907 8.03798ZM7.83 14.1666H4.73067V15.1666H7.83V14.1666ZM4.12333 13.6086L3.582 7.34664L2.58533 7.43264L3.12733 13.6946L4.12333 13.6086ZM12.02 10.758C11.682 12.7113 9.92067 14.1666 7.83 14.1666V15.1666C10.3807 15.1666 12.5807 13.3873 13.006 10.9286L12.02 10.758ZM7.83667 3.39998L7.39467 6.09664L8.38133 6.25798L8.82333 3.56198L7.83667 3.39998ZM3.792 6.83064L4.75133 6.00398L4.098 5.24664L3.14 6.07331L3.792 6.83064ZM6.496 3.31464L6.81333 2.09198L5.84533 1.84131L5.528 3.06331L6.496 3.31464ZM7.292 1.85198L7.38867 1.88331L7.69467 0.93131L7.598 0.899977L7.292 1.85198ZM6.01533 4.54398C6.22346 4.15458 6.3848 3.74194 6.496 3.31464L5.528 3.06331C5.43614 3.41417 5.30369 3.75312 5.13333 4.07331L6.01533 4.54398ZM7.38867 1.88331C7.48365 1.91242 7.56979 1.9649 7.63922 2.03595C7.70864 2.107 7.75911 2.19435 7.786 2.28998L8.754 2.03931C8.6854 1.78018 8.55226 1.54265 8.36702 1.34889C8.18177 1.15514 7.95046 1.01147 7.69467 0.93131L7.38867 1.88331ZM6.81333 2.09198C6.82683 2.04405 6.85048 1.9996 6.88269 1.96163C6.9149 1.92367 6.95491 1.89309 7 1.87198L6.566 0.97131C6.21133 1.14198 5.94467 1.45798 5.84533 1.84131L6.81333 2.09198ZM7 1.87198C7.09131 1.82866 7.19564 1.82152 7.292 1.85198L7.598 0.899977C7.25751 0.791131 6.88828 0.816653 6.566 0.97131L7 1.87198ZM8.436 7.32264H11.8893V6.32264H8.436V7.32264ZM2.146 14.2706L1.498 6.77998L0.502 6.86598L1.14867 14.3566L2.146 14.2706ZM1.5 14.342V6.82264H0.5V14.342H1.5ZM1.14867 14.3566C1.14663 14.3324 1.15033 14.308 1.15822 14.285C1.16612 14.262 1.17871 14.2409 1.1952 14.2231C1.21169 14.2052 1.23171 14.191 1.254 14.1812C1.27629 14.1715 1.30035 14.1666 1.32467 14.1666V15.1666C1.80867 15.1666 2.18733 14.752 2.146 14.2706L1.14867 14.3566ZM8.82333 3.56198C8.90714 3.05517 8.88352 2.53641 8.754 2.03931L7.786 2.29064C7.88055 2.65277 7.89781 3.03074 7.83667 3.39998L8.82333 3.56198ZM4.73067 14.1666C4.57801 14.1664 4.43098 14.1089 4.31857 14.0057C4.20615 13.9024 4.1365 13.7607 4.12333 13.6086L3.12733 13.6946C3.16202 14.0961 3.34592 14.4699 3.64274 14.7424C3.93955 15.0149 4.32773 15.1663 4.73067 15.1666V14.1666ZM4.75133 6.00398C5.20467 5.61331 5.69267 5.14864 6.016 4.54398L5.13333 4.07331C4.90267 4.50598 4.53533 4.87064 4.098 5.24664L4.75133 6.00398ZM13.476 8.20864C13.5161 7.9773 13.5052 7.73998 13.444 7.51331C13.3828 7.28663 13.2727 7.07608 13.1216 6.89641C12.9704 6.71674 12.7818 6.57229 12.5689 6.47318C12.3561 6.37406 12.1241 6.32269 11.8893 6.32264V7.32264C12.2673 7.32264 12.556 7.66398 12.4907 8.03798L13.476 8.20864ZM1.32467 14.1666C1.422 14.1666 1.5 14.2453 1.5 14.342H0.5C0.5 14.7966 0.868667 15.1666 1.32467 15.1666V14.1666ZM7.39467 6.09664C7.36981 6.2477 7.37812 6.40235 7.41901 6.54987C7.4599 6.69739 7.5324 6.83425 7.63147 6.95095C7.73054 7.06766 7.85381 7.16141 7.99274 7.22571C8.13167 7.29 8.28292 7.32264 8.436 7.32264V6.32264C8.42787 6.32268 8.41983 6.32159 8.41245 6.31816C8.40507 6.31473 8.39854 6.30972 8.39332 6.30348C8.3881 6.29725 8.38432 6.28993 8.38225 6.28207C8.38018 6.2742 8.37986 6.26598 8.38133 6.25798L7.39467 6.09664ZM3.582 7.34664C3.57387 7.25011 3.58805 7.15302 3.62467 7.06333C3.66129 6.97364 3.71863 6.8939 3.792 6.83064L3.13867 6.07264C2.94543 6.2394 2.79452 6.44963 2.69832 6.68605C2.60213 6.92247 2.56341 7.17834 2.58533 7.43264L3.582 7.34664Z" fill="#4C63BD"/>
</svg>
