<svg width="15" height="14" viewBox="0 0 15 14" fill="none" xmlns="http://www.w3.org/2000/svg">
<path fill-rule="evenodd" clip-rule="evenodd" d="M7.43481 1.17334C8.74438 1.17334 10.0003 1.70136 10.9263 2.64124C11.8523 3.58112 12.3726 4.85587 12.3726 6.18506C12.3726 7.89683 11.453 9.29789 10.4841 10.303C10.0001 10.7998 9.47187 11.2501 8.90626 11.6484L8.67254 11.8099L8.56281 11.8839L8.35598 12.0176L8.17164 12.1317L7.9434 12.2665C7.78848 12.3562 7.61319 12.4034 7.43481 12.4034C7.25644 12.4034 7.08114 12.3562 6.92623 12.2665L6.69799 12.1317L6.4127 11.9535L6.30736 11.8839L6.08242 11.7319C5.47224 11.3129 4.90389 10.8343 4.38548 10.303C3.41659 9.29733 2.49707 7.89683 2.49707 6.18506C2.49707 4.85587 3.0173 3.58112 3.9433 2.64124C4.86931 1.70136 6.12524 1.17334 7.43481 1.17334ZM7.43481 2.28705C6.41626 2.28705 5.43942 2.69774 4.71919 3.42875C3.99897 4.15977 3.59435 5.15124 3.59435 6.18506C3.59435 7.47808 4.29221 8.61295 5.16949 9.52397C5.54669 9.91154 5.9544 10.2673 6.38856 10.5876L6.63984 10.7691C6.72104 10.8266 6.79912 10.8801 6.87411 10.9295L7.08807 11.0687L7.27626 11.1851L7.43481 11.2792L7.68444 11.1294L7.88579 11.0013C7.99296 10.9323 8.10763 10.8549 8.22979 10.7691L8.48107 10.5876C8.91523 10.2673 9.32294 9.91154 9.70014 9.52397C10.5774 8.61351 11.2753 7.47808 11.2753 6.18506C11.2753 5.15124 10.8707 4.15977 10.1504 3.42875C9.43021 2.69774 8.45337 2.28705 7.43481 2.28705ZM7.43481 3.95763C8.01685 3.95763 8.57504 4.1923 8.9866 4.61003C9.39816 5.02775 9.62937 5.5943 9.62937 6.18506C9.62937 6.77581 9.39816 7.34236 8.9866 7.76009C8.57504 8.17781 8.01685 8.41248 7.43481 8.41248C6.85278 8.41248 6.29459 8.17781 5.88303 7.76009C5.47147 7.34236 5.24026 6.77581 5.24026 6.18506C5.24026 5.5943 5.47147 5.02775 5.88303 4.61003C6.29459 4.1923 6.85278 3.95763 7.43481 3.95763ZM7.43481 5.07134C7.1438 5.07134 6.8647 5.18868 6.65892 5.39754C6.45314 5.6064 6.33754 5.88968 6.33754 6.18506C6.33754 6.48043 6.45314 6.76371 6.65892 6.97257C6.8647 7.18143 7.1438 7.29877 7.43481 7.29877C7.72583 7.29877 8.00493 7.18143 8.21071 6.97257C8.41648 6.76371 8.53209 6.48043 8.53209 6.18506C8.53209 5.88968 8.41648 5.6064 8.21071 5.39754C8.00493 5.18868 7.72583 5.07134 7.43481 5.07134Z" fill="#181D4C"/>
</svg>
