<svg width="12" height="12" viewBox="0 0 12 12" fill="none" xmlns="http://www.w3.org/2000/svg">
<path d="M5.50272 0.544456C5.70669 0.157869 6.26034 0.157869 6.46431 0.544457L7.89717 3.26023C7.97583 3.40931 8.11919 3.51347 8.28529 3.54221L11.3109 4.06572C11.7416 4.14024 11.9127 4.66681 11.6081 4.98025L9.46799 7.1822C9.35051 7.30308 9.29575 7.47162 9.31974 7.63846L9.75683 10.6778C9.81905 11.1104 9.37113 11.4359 8.97888 11.243L6.22338 9.8881C6.07212 9.81372 5.89491 9.81372 5.74365 9.8881L2.98815 11.243C2.5959 11.4359 2.14798 11.1104 2.2102 10.6778L2.64729 7.63846C2.67128 7.47161 2.61652 7.30308 2.49904 7.1822L0.358963 4.98025C0.0543248 4.66681 0.225415 4.14024 0.656111 4.06572L3.68174 3.54221C3.84784 3.51347 3.9912 3.40931 4.06986 3.26023L5.50272 0.544456Z" fill="#FE0002"/>
</svg>
