<svg width="18" height="18" viewBox="0 0 18 18" fill="none" xmlns="http://www.w3.org/2000/svg">
<path d="M7.59375 6.65625C7.59375 5.8796 8.22337 5.25 9 5.25C9.77662 5.25 10.4062 5.8796 10.4062 6.65625C10.4062 7.17184 10.1287 7.62262 9.71505 7.86742C9.3585 8.07832 9 8.39828 9 8.8125V9.75" stroke="#DD2C90" stroke-linecap="round"/>
<path d="M9.25 12C9.25 12.1381 9.13807 12.25 9 12.25C8.86193 12.25 8.75 12.1381 8.75 12C8.75 11.8619 8.86193 11.75 9 11.75C9.13807 11.75 9.25 11.8619 9.25 12Z" fill="#DD2C90" stroke="#DD2C90"/>
<path d="M5.25 2.50336C6.35315 1.86523 7.63395 1.5 9 1.5C13.1421 1.5 16.5 4.85786 16.5 9C16.5 13.1421 13.1421 16.5 9 16.5C4.85786 16.5 1.5 13.1421 1.5 9C1.5 7.63395 1.86523 6.35315 2.50336 5.25" stroke="#DD2C90" stroke-linecap="round"/>
</svg>
