<svg width="25" height="24" viewBox="0 0 25 24" fill="none" xmlns="http://www.w3.org/2000/svg">
<g clip-path="url(#clip0_2629_4030)">
<path d="M12.5 4C15.2867 4 17.7628 5.25676 19.5257 6.81276C20.4108 7.59401 21.1403 8.47094 21.6544 9.34416C22.1593 10.2015 22.5 11.1299 22.5 12C22.5 12.8701 22.1593 13.7985 21.6544 14.6558C21.1403 15.5291 20.4108 16.406 19.5257 17.1872C17.7628 18.7432 15.2867 20 12.5 20C9.71333 20 7.23725 18.7432 5.47431 17.1872C4.58915 16.406 3.85973 15.5291 3.34556 14.6558C2.84075 13.7985 2.5 12.8701 2.5 12C2.5 11.1299 2.84075 10.2015 3.34556 9.34416C3.85973 8.47094 4.58915 7.59401 5.47431 6.81276C7.23725 5.25676 9.71333 4 12.5 4ZM12.5 6C10.3161 6 8.29219 6.99324 6.79777 8.31224C6.05424 8.96849 5.46565 9.68531 5.06897 10.359C4.66293 11.0485 4.5 11.6201 4.5 12C4.5 12.3799 4.66293 12.9515 5.06897 13.641C5.46565 14.3147 6.05424 15.0315 6.79777 15.6878C8.29219 17.0068 10.3161 18 12.5 18C14.6839 18 16.7078 17.0068 18.2022 15.6878C18.9458 15.0315 19.5344 14.3147 19.931 13.641C20.3371 12.9515 20.5 12.3799 20.5 12C20.5 11.6201 20.3371 11.0485 19.931 10.359C19.5344 9.68531 18.9458 8.96849 18.2022 8.31224C16.7078 6.99324 14.6839 6 12.5 6ZM12.5 9C12.588 9 12.6751 9.00379 12.7611 9.01121C12.5949 9.30283 12.5 9.64033 12.5 10C12.5 11.1046 13.3954 12 14.5 12C14.8597 12 15.1972 11.9051 15.4888 11.7389C15.4962 11.8249 15.5 11.912 15.5 12C15.5 13.6569 14.1569 15 12.5 15C10.8431 15 9.5 13.6569 9.5 12C9.5 10.3431 10.8431 9 12.5 9Z" fill="#624DE3"/>
</g>
<defs>
<clipPath id="clip0_2629_4030">
<rect width="24" height="24" fill="white" transform="translate(0.5)"/>
</clipPath>
</defs>
</svg>
