<svg width="22" height="22" viewBox="0 0 22 22" fill="none" xmlns="http://www.w3.org/2000/svg">
<path d="M16.9587 17.875H13.292" stroke="#4C63BD" stroke-linecap="round" stroke-linejoin="round"/>
<path d="M15.125 19.7084V16.0417" stroke="#4C63BD" stroke-linecap="round" stroke-linejoin="round"/>
<path d="M11.1474 9.96408C11.0557 9.95492 10.9457 9.95492 10.8449 9.96408C8.6632 9.89075 6.9307 8.10325 6.9307 5.90325C6.92153 3.65742 8.7457 1.83325 10.9915 1.83325C13.2374 1.83325 15.0615 3.65742 15.0615 5.90325C15.0615 8.10325 13.3199 9.89075 11.1474 9.96408Z" stroke="#4C63BD" stroke-linecap="round" stroke-linejoin="round"/>
<path d="M10.9897 19.9926C9.32135 19.9926 7.66215 19.571 6.39715 18.7276C4.17882 17.2426 4.17882 14.8226 6.39715 13.3468C8.91798 11.6601 13.0522 11.6601 15.573 13.3468" stroke="#4C63BD" stroke-linecap="round" stroke-linejoin="round"/>
</svg>
