<svg width="17" height="17" viewBox="0 0 17 17" fill="none" xmlns="http://www.w3.org/2000/svg">
<rect x="0.00830078" y="0.448242" width="16.0224" height="16.0224" rx="8.01119" fill="#84CC17"/>
<path d="M12.1115 6.16552C12.2101 6.03791 12.2517 5.87978 12.2288 5.72019C12.2058 5.56065 12.1213 5.4207 11.9908 5.32615L11.4465 4.93152C11.3572 4.86681 11.3077 4.75837 11.3172 4.6484L11.3755 3.97882C11.3895 3.81822 11.339 3.66271 11.2335 3.54087C11.1279 3.41903 10.9811 3.34694 10.8201 3.33789L10.149 3.3002C10.0389 3.29403 9.93853 3.22952 9.8871 3.13188L9.57407 2.53708C9.49903 2.39445 9.3725 2.29084 9.21779 2.24544C9.06323 2.20011 8.90068 2.21869 8.76039 2.29815L8.17545 2.62935C8.07942 2.68373 7.96019 2.68373 7.86416 2.62935L7.27922 2.29815C7.13886 2.21869 6.97632 2.20011 6.82181 2.24544C6.66711 2.29084 6.54057 2.39445 6.46553 2.53708L6.15251 3.13188C6.10107 3.22952 6.00076 3.29403 5.89058 3.3002L5.21946 3.33789C5.05846 3.34694 4.91167 3.41903 4.80612 3.54087C4.70057 3.66271 4.65014 3.81822 4.66416 3.97876L4.72236 4.64847C4.73189 4.75837 4.6824 4.86681 4.59301 4.93158L4.04883 5.32615C3.91834 5.4207 3.83385 5.56065 3.81084 5.72019C3.78791 5.87978 3.82949 6.03791 3.92813 6.16552L4.33913 6.69735C4.40659 6.78466 4.42355 6.90275 4.38345 7.00555L4.13889 7.63167C4.08028 7.78182 4.08484 7.94524 4.15177 8.09182C4.21876 8.23848 4.33933 8.34899 4.49121 8.40304L5.12451 8.62829C5.22845 8.66524 5.30657 8.75536 5.32837 8.86353L5.46114 9.52251C5.49306 9.68049 5.58527 9.81555 5.72092 9.90266C5.76254 9.92943 5.80709 9.9486 5.85269 9.96405V14.6589C5.85269 14.7137 5.88535 14.7634 5.93578 14.785C5.98594 14.8065 6.04454 14.7963 6.08444 14.7586L8.0198 12.9254L9.95516 14.7586C9.98118 14.7832 10.0151 14.7962 10.0496 14.7962C10.0679 14.7962 10.0864 14.7925 10.1038 14.785C10.1543 14.7634 10.1869 14.7137 10.1869 14.6589V9.96409C10.2325 9.94863 10.2771 9.92946 10.3187 9.90266C10.4543 9.81555 10.5465 9.68049 10.5785 9.52251L10.7112 8.86353C10.733 8.75536 10.8112 8.66524 10.9151 8.62829L11.5484 8.40304C11.7003 8.34899 11.8208 8.23848 11.8878 8.09182C11.9548 7.94524 11.9593 7.78182 11.9007 7.63167L11.6562 7.00562C11.6161 6.90275 11.633 6.78466 11.7004 6.69735L12.1115 6.16552ZM8.11422 12.6365C8.06125 12.5863 7.97836 12.5863 7.92539 12.6365L6.12736 14.3396V9.98716C6.14311 9.98475 6.15888 9.98461 6.17457 9.98091L6.82912 9.82795C6.93675 9.80281 7.05108 9.83647 7.12787 9.91573L7.5958 10.3982C7.70798 10.514 7.8586 10.5777 8.0198 10.5777C8.18101 10.5777 8.33162 10.514 8.44381 10.3982L8.91174 9.91573C8.98859 9.83647 9.10313 9.80274 9.21048 9.82795L9.86504 9.98091C9.88073 9.98462 9.8965 9.98477 9.91225 9.98718V14.3396L8.11422 12.6365ZM11.4003 7.10547L11.6448 7.73159C11.6762 7.81192 11.6738 7.8993 11.638 7.97776C11.6021 8.05622 11.5377 8.11529 11.4564 8.1442L10.8231 8.36944C10.6288 8.43851 10.4827 8.60703 10.4419 8.80921L10.3092 9.46819C10.2921 9.55275 10.2428 9.62497 10.1702 9.67158C10.0977 9.71831 10.0116 9.73313 9.92754 9.71349L9.27298 9.56053C9.07174 9.51332 8.85803 9.57642 8.71459 9.72448L8.24666 10.207C8.12649 10.3309 7.91311 10.3309 7.79295 10.207L7.32502 9.72448C7.2129 9.60888 7.05792 9.54524 6.89967 9.54524C6.85528 9.54524 6.81062 9.5502 6.76662 9.56053L6.11207 9.71349C6.02805 9.73293 5.94195 9.71818 5.86939 9.67158C5.79683 9.62497 5.74748 9.55275 5.73045 9.46819L5.59767 8.80921C5.5569 8.60703 5.41085 8.43851 5.21651 8.36944L4.58322 8.1442C4.50194 8.11529 4.4375 8.05622 4.40163 7.97776C4.36582 7.8993 4.3634 7.81192 4.39479 7.73159L4.63935 7.1054C4.71432 6.91328 4.68253 6.69259 4.55646 6.52944L4.14546 5.9976C4.09269 5.92934 4.07043 5.84471 4.0827 5.75935C4.09504 5.67398 4.14023 5.59915 4.21004 5.54852L4.75415 5.15402C4.92126 5.03298 5.01386 4.83013 4.99596 4.62466L4.93775 3.95495C4.93031 3.86905 4.95727 3.7859 5.01373 3.72072C5.07019 3.65554 5.14872 3.61698 5.23489 3.61215L5.906 3.57447C6.11187 3.56286 6.29943 3.44236 6.39553 3.25983L6.70855 2.66503C6.74872 2.58871 6.81645 2.53326 6.8992 2.50898C6.98195 2.48464 7.06892 2.49483 7.14389 2.53715L7.72884 2.86835C7.90829 2.97001 8.13132 2.97001 8.31077 2.86835L8.89571 2.53715C8.97082 2.4947 9.05773 2.48457 9.14041 2.50898C9.22316 2.53326 9.29089 2.58871 9.33106 2.66503L9.64408 3.25983C9.74018 3.44236 9.92774 3.56286 10.1336 3.57447L10.8047 3.61215C10.8909 3.61698 10.9694 3.65554 11.0259 3.72072C11.0823 3.7859 11.1093 3.86905 11.1019 3.95502L11.0436 4.62459C11.0257 4.83013 11.1184 5.03298 11.2854 5.15395L11.8296 5.54852C11.8994 5.59915 11.9446 5.67398 11.9569 5.75935C11.9692 5.84471 11.9469 5.92934 11.8942 5.9976L11.4831 6.52944C11.3571 6.69259 11.3253 6.91328 11.4003 7.10547Z" fill="white"/>
<path d="M10.601 5.70389L10.0762 5.66573C10.0467 5.66345 10.0215 5.64548 10.0105 5.61879L9.8111 5.13128C9.75765 4.99857 9.63051 4.9126 9.48734 4.9122C9.33968 4.91636 9.21549 4.99757 9.16097 5.13068L8.99536 5.53465L8.78069 5.51894C8.72738 5.51498 8.68164 5.48179 8.66146 5.4323L8.40328 4.79941C8.33844 4.64035 8.19145 4.54157 8.01965 4.5415C7.84784 4.5415 7.70079 4.64035 7.63587 4.79941L7.3777 5.4323C7.35752 5.48179 7.31178 5.51498 7.25847 5.51887L7.03775 5.53505L6.87329 5.13061C6.81877 4.9975 6.69378 4.91461 6.54692 4.9122C6.40375 4.9126 6.27661 4.99857 6.22343 5.13068L6.02367 5.61879C6.01274 5.64548 5.98759 5.66345 5.95849 5.66566L5.43148 5.70395C5.28824 5.71509 5.16734 5.81064 5.12341 5.94744C5.07969 6.0837 5.12214 6.23123 5.23144 6.32303L5.63359 6.66248C5.65646 6.68213 5.66645 6.71244 5.66008 6.73973L5.533 7.25172C5.49887 7.39106 5.55185 7.53557 5.66806 7.61987C5.72968 7.66459 5.80191 7.68713 5.87426 7.68713C5.93817 7.68713 6.00221 7.66956 6.05914 7.63415L6.50836 7.35646C6.53304 7.3409 6.56368 7.34097 6.58876 7.35666L6.76348 7.46512L6.74414 7.54382C6.70316 7.71066 6.76405 7.87703 6.90306 7.97802C7.04208 8.07881 7.21891 8.08532 7.36509 7.99485L7.94588 7.63462C7.99135 7.60632 8.04788 7.60639 8.09321 7.63455L8.67406 7.99485C8.74266 8.03744 8.81804 8.05856 8.89314 8.05856C8.97797 8.05856 9.0624 8.03153 9.13616 7.97796C9.27517 7.87697 9.33599 7.7106 9.29502 7.54376L9.27514 7.46287L9.44583 7.35646C9.47038 7.34111 9.50109 7.3409 9.52644 7.3568L9.97485 7.63402C10.032 7.66949 10.0961 7.68706 10.1601 7.68706C10.2324 7.68706 10.3046 7.66453 10.3662 7.61987C10.4824 7.53557 10.5354 7.39106 10.5012 7.25132L10.3746 6.74154C10.3678 6.71244 10.3778 6.68213 10.3997 6.66328L10.803 6.32283C10.9121 6.23049 10.954 6.08276 10.91 5.94657C10.8658 5.81024 10.7447 5.71502 10.601 5.70389ZM9.41512 5.23468C9.43283 5.19156 9.47065 5.18687 9.48634 5.18687C9.49915 5.18519 9.53925 5.19136 9.55668 5.23461L9.75631 5.72273C9.75707 5.72457 9.75847 5.72596 9.75925 5.72778C9.68925 5.63634 9.58425 5.5778 9.4624 5.56883L9.28375 5.55576L9.41512 5.23468ZM6.73394 7.1235C6.62109 7.05303 6.47544 7.05309 6.36338 7.12317L5.91443 7.40065C5.87513 7.42526 5.84187 7.40662 5.82933 7.39757C5.81679 7.38845 5.78869 7.3623 5.79969 7.31743L5.9271 6.80404C5.95735 6.67489 5.91342 6.54084 5.8117 6.45339L5.40834 6.11294C5.37307 6.0833 5.38024 6.04602 5.38494 6.0314C5.3897 6.01644 5.40593 5.98144 5.452 5.97789L5.9788 5.93959C6.11272 5.92947 6.22739 5.84638 6.27788 5.72273L6.47785 5.23401C6.49495 5.19156 6.53243 5.18687 6.54772 5.18687C6.56 5.18184 6.6013 5.19136 6.61901 5.23435L6.74989 5.55614L6.57676 5.56883C6.40543 5.58144 6.26601 5.69074 6.2129 5.8541C6.15986 6.01752 6.20841 6.18791 6.33964 6.29876L6.86176 6.73986C6.90259 6.7744 6.9201 6.82811 6.90729 6.88002L6.83242 7.18463L6.73394 7.1235ZM8.97468 7.75579C8.95685 7.76867 8.89281 7.80716 8.81891 7.76149L8.23799 7.40112C8.17066 7.35941 8.09509 7.33849 8.01958 7.33849C7.94407 7.33849 7.8685 7.35941 7.8011 7.40119L7.22025 7.76149C7.14615 7.80736 7.08238 7.76873 7.06447 7.75579C7.04664 7.74285 6.99011 7.69396 7.01089 7.60934L7.05623 7.4249C7.05642 7.42385 7.05683 7.42287 7.05699 7.42183L7.17405 6.9456C7.21187 6.79163 7.16016 6.63244 7.03906 6.53011L6.51694 6.089C6.45029 6.03267 6.46739 5.95998 6.47416 5.93899C6.481 5.91807 6.50997 5.8492 6.59688 5.84283L7.27859 5.79281C7.43671 5.7812 7.5721 5.68283 7.63198 5.53611L7.89016 4.90321C7.92308 4.82248 7.99758 4.81617 8.01958 4.81617C8.04157 4.81617 8.11608 4.82248 8.149 4.90315L8.40717 5.53611C8.46706 5.68283 8.60245 5.7812 8.76057 5.79287L9.44228 5.84283C9.52919 5.8492 9.55822 5.91807 9.565 5.93899C9.57184 5.95998 9.58887 6.03274 9.52228 6.08893L9.0001 6.53011C8.87906 6.63237 8.82736 6.7915 8.86511 6.9456L9.02826 7.60934C9.04912 7.69396 8.99252 7.74278 8.97468 7.75579ZM10.6257 6.11314L10.2216 6.4542C10.1208 6.54084 10.0769 6.67489 10.1076 6.80585L10.2345 7.31703C10.2456 7.3623 10.2175 7.38845 10.2049 7.39757C10.1924 7.40662 10.1592 7.42506 10.1196 7.40052L9.67142 7.1235C9.55876 7.05309 9.41298 7.05316 9.30045 7.12344L9.20614 7.18223L9.13187 6.88008C9.11913 6.82811 9.13656 6.7744 9.1774 6.73993L9.69958 6.29876C9.83081 6.18791 9.8793 6.01752 9.82625 5.8541C9.82127 5.83875 9.81479 5.82436 9.80832 5.81001C9.86818 5.88429 9.95646 5.93212 10.0559 5.93966L10.5805 5.97782C10.6276 5.98144 10.6438 6.01631 10.6487 6.03113C10.6534 6.04588 10.6607 6.08343 10.6257 6.11314Z" fill="white"/>
</svg>
