<svg width="22" height="22" viewBox="0 0 22 22" fill="none" xmlns="http://www.w3.org/2000/svg">
<g clip-path="url(#clip0_2550_1256)">
<path d="M4.75013 17.6966C4.52523 17.9464 4.35736 18.2338 4.26338 18.5245C4.1976 18.7293 4.16602 18.9314 4.16602 19.1207C4.16602 19.2362 4.17745 19.3463 4.20228 19.4503C4.2211 19.5275 4.24658 19.6014 4.28083 19.6692C4.30635 19.7209 4.33725 19.7699 4.37347 19.8142C4.42787 19.88 4.49498 19.9371 4.57491 19.9767C4.65414 20.017 4.74545 20.0385 4.83809 20.0378V19.6182C4.81863 19.6182 4.80384 19.6155 4.78975 19.6115C4.76491 19.6048 4.74476 19.5933 4.72195 19.5732C4.70583 19.5578 4.68839 19.5376 4.67227 19.5101C4.64808 19.4704 4.62527 19.4154 4.60984 19.3496C4.59441 19.2831 4.58565 19.2059 4.58565 19.1207C4.58565 18.979 4.61048 18.8179 4.66286 18.6527C4.71189 18.501 4.78975 18.3438 4.8918 18.1948C5.04421 17.9706 5.25235 17.7658 5.49268 17.6194C5.61217 17.5463 5.74108 17.4872 5.87471 17.4469C6.00899 17.4066 6.14932 17.3851 6.29434 17.3851C6.4877 17.3851 6.67303 17.424 6.84623 17.4938C7.10538 17.5972 7.33969 17.7711 7.52703 17.9786C7.71369 18.1854 7.85265 18.4257 7.92518 18.6527C7.9782 18.8178 8.00308 18.979 8.00308 19.1206C8.00308 19.2073 7.99367 19.2858 7.97756 19.3523C7.96613 19.4019 7.95002 19.4463 7.93257 19.4812C7.91912 19.508 7.90503 19.5295 7.89029 19.5477C7.8688 19.5738 7.84732 19.5906 7.82652 19.6014C7.80504 19.6114 7.78287 19.6175 7.75064 19.6182V20.0378C7.80568 20.0385 7.86008 20.0304 7.91177 20.0163C8.00239 19.9915 8.08365 19.9445 8.15012 19.8834C8.19979 19.8377 8.24143 19.7854 8.27568 19.7283C8.32805 19.6424 8.36432 19.547 8.38778 19.445C8.41124 19.3429 8.42272 19.2342 8.42272 19.1207C8.42272 18.9314 8.39118 18.7286 8.32535 18.5245C8.26291 18.3304 8.16757 18.1384 8.04403 17.9578C7.85871 17.6872 7.61164 17.4415 7.31489 17.2603C7.16652 17.1703 7.00604 17.0964 6.83485 17.0454C6.66366 16.993 6.48237 16.9648 6.29439 16.9648C6.04396 16.9648 5.80493 17.0159 5.58673 17.1038C5.25837 17.2354 4.97503 17.4476 4.75013 17.6966Z" fill="#202224"/>
<path d="M7.1151 19.4263C7.04661 19.4807 7.00635 19.5626 7.00635 19.6505V19.9896C7.00635 20.0769 7.04665 20.1594 7.1151 20.2138C7.18359 20.2676 7.27357 20.2877 7.35813 20.2676L7.58441 20.2138V19.4256L7.35813 19.3719C7.27353 19.3518 7.18359 19.3719 7.1151 19.4263Z" fill="#202224"/>
<path d="M5.22985 19.3719L5.00293 19.4256V20.2138L5.22985 20.2676C5.31445 20.2877 5.40443 20.2676 5.47288 20.2138C5.54137 20.1595 5.58163 20.0769 5.58163 19.9896V19.6505C5.58163 19.5626 5.54133 19.4807 5.47288 19.4263C5.40443 19.3719 5.31445 19.3518 5.22985 19.3719Z" fill="#202224"/>
<path d="M19.4842 18.4591C19.3975 18.1355 19.2754 17.8455 19.125 17.5877C18.8611 17.1345 18.512 16.782 18.1266 16.5027C17.8373 16.2932 17.5284 16.122 17.2142 15.975C16.7436 15.7548 16.2622 15.5856 15.8178 15.4211C15.3733 15.2573 14.9671 15.0968 14.6509 14.9102C14.5354 14.8417 14.4314 14.7705 14.3414 14.696C14.2071 14.5839 14.1024 14.4644 14.0265 14.3308C13.9507 14.1972 13.8996 14.0468 13.8802 13.8588C13.8661 13.7245 13.86 13.5983 13.86 13.4774C13.86 13.1216 13.9124 12.8135 13.9795 12.4986C14.1782 12.2743 14.3602 12.0071 14.5321 11.6875C14.7046 11.366 14.8684 10.9906 15.0316 10.5462C15.1363 10.4985 15.2417 10.4414 15.3444 10.3716C15.5794 10.2145 15.8023 9.99427 15.9883 9.70088C16.1736 9.40749 16.3226 9.0429 16.4247 8.59311C16.4528 8.46824 16.4663 8.34402 16.4663 8.22181C16.467 7.96666 16.4065 7.72363 16.3052 7.50612C16.2346 7.35505 16.1454 7.21677 16.0413 7.09122C16.0943 6.89515 16.1588 6.63132 16.2165 6.32246C16.2957 5.89347 16.3615 5.37784 16.3615 4.836C16.3615 4.4862 16.334 4.125 16.2628 3.76849C16.2098 3.50127 16.1312 3.23606 16.0211 2.98229C15.8553 2.60025 15.6143 2.24108 15.2792 1.94434C14.969 1.66972 14.5803 1.45088 14.111 1.31055C13.9452 1.11182 13.7787 0.942605 13.6081 0.798961C13.4604 0.675426 13.3094 0.571355 13.1549 0.486105C12.9227 0.357199 12.6823 0.271949 12.4359 0.220215C12.1895 0.16848 11.9384 0.149703 11.6779 0.149703C11.3187 0.149703 10.9407 0.185281 10.5231 0.22623C10.3653 0.242344 10.2331 0.261809 10.1183 0.281961C9.94707 0.312855 9.81881 0.344395 9.71611 0.365234C9.66442 0.375289 9.61943 0.383367 9.57513 0.388738C9.53083 0.393422 9.48786 0.396816 9.43884 0.396816C9.37305 0.396816 9.29717 0.391445 9.19782 0.377352C8.89369 0.333051 8.61573 0.264559 8.39753 0.197398C8.28878 0.164484 8.19476 0.131613 8.1209 0.103383C8.08399 0.0892891 8.05176 0.0765273 8.02624 0.0657852C8.00007 0.055043 7.98056 0.0449883 7.96918 0.0396172L7.96986 0.0403047C7.9363 0.0228594 7.90408 0.0134492 7.8752 0.00807812C7.84633 0.00133203 7.82085 0 7.79868 0C7.75236 0 7.71944 0.00670312 7.69327 0.0134492C7.6671 0.0201953 7.64695 0.0282305 7.62882 0.0356211C7.59389 0.0497148 7.56703 0.0644961 7.54017 0.0806094C7.49115 0.110172 7.44418 0.143043 7.39447 0.181328C7.30784 0.248488 7.21254 0.331719 7.11113 0.42973C6.95941 0.576082 6.7969 0.753328 6.64922 0.946687C6.57535 1.04268 6.50622 1.1434 6.44378 1.24747C6.38135 1.35154 6.32631 1.45827 6.28265 1.57042C6.06914 2.12566 5.92816 2.63725 5.84089 3.10926C5.75293 3.58123 5.71937 4.01363 5.71937 4.4104C5.71937 5.05961 5.81 5.61017 5.89731 6.07544C5.89731 6.09761 5.898 6.11841 5.89933 6.14058C5.90203 6.18423 5.90672 6.22922 5.9114 6.27619C5.91879 6.34601 5.92683 6.41786 5.93289 6.47827C5.93624 6.50848 5.93895 6.53533 5.94096 6.55617C5.94165 6.56623 5.9423 6.57564 5.9423 6.58234L5.94298 6.58904V6.59106V6.59175V6.63137L6.02823 7.0107C5.90539 7.14497 5.7993 7.29536 5.71671 7.46054C5.60121 7.69016 5.53276 7.9493 5.53276 8.22323C5.53276 8.3441 5.54685 8.46897 5.57504 8.59315C5.6422 8.89324 5.73149 9.15509 5.83823 9.38339C5.99803 9.72645 6.2008 9.99303 6.42501 10.1931C6.5989 10.3489 6.78487 10.4623 6.96882 10.5463C7.13128 10.9907 7.29512 11.3654 7.46764 11.6869C7.63952 12.0072 7.8208 12.2737 8.01954 12.498C8.0867 12.8129 8.13903 13.1217 8.13972 13.4775C8.13972 13.5984 8.13302 13.7246 8.11892 13.8589C8.10547 13.9878 8.07729 14.0992 8.03634 14.2C7.97523 14.3504 7.88594 14.4786 7.76443 14.6001C7.64291 14.7196 7.4878 14.8318 7.30453 14.9359C7.11857 15.0413 6.90303 15.14 6.66873 15.234C6.25782 15.4005 5.7892 15.5576 5.31452 15.7476C4.9587 15.8892 4.59815 16.0511 4.2544 16.2531C3.99659 16.4049 3.74883 16.5808 3.52058 16.7896C3.17885 17.1024 2.88408 17.4925 2.68067 17.9746C2.47657 18.4573 2.36309 19.0286 2.36377 19.7041C2.36377 19.7994 2.38393 19.89 2.4168 19.9739C2.447 20.0525 2.48933 20.1243 2.539 20.1928C2.63301 20.3204 2.75384 20.4345 2.90221 20.5446C3.16273 20.7367 3.50846 20.9166 3.95628 21.0858C4.62767 21.3389 5.52735 21.5665 6.69086 21.7317C7.85372 21.8968 9.28041 22.0002 10.9992 22.0002C12.4903 22.0002 13.7606 21.923 14.8301 21.7948C15.6317 21.6981 16.3212 21.5732 16.906 21.4302C17.3451 21.3235 17.7258 21.206 18.0521 21.0824C18.2965 20.9898 18.5113 20.8931 18.698 20.7937C18.8376 20.7192 18.9611 20.6427 19.0706 20.5641C19.2344 20.4453 19.366 20.3231 19.466 20.1841C19.5164 20.115 19.5573 20.0411 19.5875 19.9605C19.6177 19.8813 19.6359 19.794 19.6359 19.7041C19.6359 19.242 19.5829 18.829 19.4842 18.4591ZM14.0621 15.3869L11.9069 18.7525L11.6666 17.1002L12.2782 16.453L11.882 15.7923L13.5538 14.9135C13.6001 14.9733 13.6491 15.0297 13.7008 15.0834C13.8116 15.1968 13.9332 15.2969 14.0621 15.3869ZM7.86648 3.74498C9.80948 4.176 13.6089 3.35221 13.6089 3.35221C13.6089 3.35221 13.6498 4.29417 14.2977 5.15891C14.5528 5.49862 14.763 6.02972 14.9207 6.5346C14.8785 6.45605 14.7791 6.42649 14.6307 6.40771C14.2977 6.36273 13.8029 6.33385 13.2457 6.36071C11.59 6.44196 11.7129 6.59235 11.063 6.59235C10.4131 6.59235 10.5359 6.44196 8.88028 6.36071C8.32302 6.33385 7.82824 6.36273 7.49454 6.40771C7.32134 6.43053 7.21254 6.46547 7.1877 6.58092C7.17898 6.62389 7.16553 6.67223 7.1058 6.69573C7.28911 6.01094 7.79936 5.1361 7.86648 3.74498ZM14.6059 7.58265C14.6059 7.59206 14.5992 8.54141 13.9533 8.86566C13.7337 8.97643 13.4584 9.03753 13.1785 9.03822C12.8831 9.03822 12.6132 8.97106 12.3977 8.84417C12.1593 8.70452 11.9989 8.49707 11.9203 8.22916C11.9015 8.16673 11.8847 8.10429 11.8673 8.04384C11.8163 7.8592 11.6786 7.34628 11.9707 7.1207C12.1587 6.97366 12.7421 6.88102 13.3014 6.88102C13.8096 6.88102 14.3279 6.95015 14.4797 7.10862C14.5797 7.21338 14.6186 7.40003 14.6059 7.58265ZM10.2586 8.04388C10.2412 8.10429 10.2237 8.16673 10.2056 8.2292C10.1271 8.49707 9.96658 8.70457 9.72892 8.84421C9.51274 8.9711 9.24281 9.03826 8.9474 9.03826C8.66742 9.03757 8.39285 8.97647 8.17263 8.8657C7.52677 8.54141 7.52071 7.59206 7.52002 7.5827C7.50726 7.40008 7.54619 7.21342 7.64558 7.10871C7.79799 6.95024 8.31628 6.8811 8.82455 6.8811C9.38315 6.8811 9.96727 6.97374 10.1559 7.12078C10.4473 7.34632 10.3097 7.85924 10.2586 8.04388ZM8.10148 11.3465C7.93295 11.0322 7.76512 10.6415 7.59255 10.1541L7.53549 9.99496L7.37702 9.93657C7.26689 9.89626 7.15947 9.84393 7.05678 9.77475C6.9017 9.67068 6.75466 9.52836 6.6197 9.31618C6.48473 9.104 6.36391 8.81934 6.27664 8.43464C6.25984 8.36146 6.25313 8.29164 6.25313 8.22314C6.25313 8.06872 6.29004 7.92236 6.36055 7.78271C6.4183 7.66657 6.49887 7.55713 6.59688 7.45774C6.76205 7.70752 6.899 7.90556 6.94871 7.95523C7.04337 8.04989 7.09038 7.95859 7.09777 7.78134C7.15616 8.17545 7.34351 8.82604 7.94842 9.14762C8.81923 9.61022 10.119 9.43697 10.5601 8.40709C10.7595 7.94247 10.7622 7.48864 11.063 7.48864C11.3631 7.48864 11.3665 7.94252 11.5658 8.40709C12.0076 9.43701 13.3074 9.61022 14.1782 9.14762C15.0483 8.68502 15.0544 7.53964 15.0544 7.45907C15.0544 7.41744 15.094 7.3859 15.1504 7.37984C15.2242 7.69068 15.2625 7.90152 15.2625 7.90152C15.2625 7.90152 15.3458 7.74241 15.4706 7.53023C15.5451 7.6175 15.6069 7.71152 15.6525 7.80953C15.7136 7.94114 15.7466 8.07877 15.7466 8.22177C15.7466 8.29091 15.7392 8.36142 15.7224 8.43395C15.6646 8.69043 15.5914 8.90257 15.5095 9.07848C15.386 9.34166 15.2437 9.52295 15.0946 9.65589C14.9463 9.78884 14.7878 9.87542 14.6233 9.93652L14.4642 9.99427L14.4078 10.1541C14.2352 10.6415 14.0667 11.0329 13.8982 11.3465C13.729 11.6607 13.5612 11.897 13.3866 12.081L13.3175 12.1541L13.296 12.2515C13.2181 12.6107 13.1403 13.0075 13.1403 13.4774C13.1403 13.6225 13.1476 13.7735 13.1638 13.9327C13.1832 14.1193 13.2262 14.2945 13.29 14.4557C13.2927 14.4631 13.2967 14.4711 13.2994 14.4778L11.1127 15.6279L8.68899 14.5034C8.7635 14.3288 8.81386 14.1381 8.83534 13.9327C8.85214 13.7736 8.85884 13.6225 8.85884 13.4775C8.85953 13.0075 8.78163 12.61 8.70308 12.2509L8.6816 12.1535L8.61246 12.081C8.43852 11.8956 8.27 11.6606 8.10148 11.3465ZM8.08201 15.2794C8.20825 15.1781 8.3244 15.0646 8.42709 14.937L10.2754 15.7951L9.88064 16.453L10.4916 17.1003L10.266 18.6559L7.90812 15.407C7.96789 15.366 8.02628 15.3237 8.08201 15.2794ZM18.9155 19.7012C18.9148 19.7052 18.9101 19.7186 18.8974 19.7401C18.8732 19.7817 18.8168 19.8489 18.7215 19.9254C18.6389 19.9919 18.5274 20.0664 18.3871 20.143C18.1407 20.2779 17.807 20.4182 17.3841 20.5512C16.7489 20.7512 15.9104 20.9339 14.8523 21.0668C13.7941 21.1984 12.5165 21.2803 10.9992 21.2803C9.53418 21.2803 8.29213 21.2038 7.25551 21.0796C6.47803 20.9862 5.81605 20.8654 5.26416 20.7311C4.84926 20.6298 4.4961 20.5203 4.20271 20.4089C3.9818 20.3256 3.7945 20.241 3.64076 20.1584C3.52526 20.0967 3.42794 20.0356 3.3487 19.9792C3.23054 19.8946 3.15534 19.8174 3.11775 19.7643C3.09892 19.7388 3.08956 19.7187 3.08621 19.7093C3.08419 19.7053 3.0835 19.7026 3.0835 19.7012C3.0835 19.2984 3.12917 18.9533 3.20837 18.6539C3.2775 18.392 3.37285 18.1644 3.489 17.963C3.69177 17.6105 3.9583 17.3339 4.27519 17.1009C4.51152 16.9257 4.77673 16.7759 5.05736 16.6424C5.37223 16.4927 5.70657 16.3637 6.04228 16.2395V16.9646H6.29404H6.54579V16.0536C6.86673 15.9334 7.17958 15.8098 7.47095 15.6622L11.1965 20.7949L14.4514 15.7132C14.4614 15.7286 14.4715 15.7441 14.4809 15.7588C14.6165 15.977 14.7112 16.2147 14.7743 16.4839C14.8367 16.7525 14.8656 17.0533 14.8656 17.3883C14.8656 18.1644 14.8656 18.8405 14.8656 19.2957H13.6961V19.7999H16.575V19.2957H15.4055C15.4055 18.8405 15.4055 18.1644 15.4055 17.3883C15.4055 16.9002 15.3497 16.4557 15.2114 16.0502C15.1994 16.0153 15.1866 15.9804 15.1731 15.9461C15.5666 16.1012 15.9781 16.2409 16.377 16.3993C16.7187 16.5343 17.0504 16.682 17.3518 16.8572C17.5788 16.9888 17.7889 17.1365 17.9756 17.3043C18.2556 17.5588 18.4851 17.8589 18.6503 18.2436C18.8148 18.6276 18.9155 19.1003 18.9155 19.7012Z" fill="#202224"/>
</g>
<defs>
<clipPath id="clip0_2550_1256">
<rect width="22" height="22" fill="white"/>
</clipPath>
</defs>
</svg>
