<svg width="22" height="22" viewBox="0 0 22 22" fill="none" xmlns="http://www.w3.org/2000/svg">
<mask id="path-1-outside-1_2550_1267" maskUnits="userSpaceOnUse" x="0.97998" y="0.0996094" width="20" height="21" fill="black">
<rect fill="white" x="0.97998" y="0.0996094" width="20" height="21"/>
<path d="M19.861 16.2496C19.861 16.2496 19.3345 17.56 18.5902 17.3854C18.4526 16.9591 18.1084 16.5214 17.0709 16.8086V15.742C17.0735 15.738 17.0767 15.7342 17.0795 15.7302C17.2688 15.4643 17.3691 15.1808 17.4165 14.9578C17.6879 15.0402 18.2682 14.9355 18.2682 14.0058C18.2682 13.5573 18.0605 13.0734 17.6833 12.6426C17.4444 12.3695 16.7714 11.6181 16.0599 12.1878C15.882 12.1423 15.0448 12.1425 14.8666 12.188C14.7665 12.1046 14.6291 11.9947 14.437 11.9707C14.4233 11.8289 14.3849 11.6874 14.3196 11.5534L12.8359 8.49596C11.7695 5.91504 10.6808 5.61036 9.74073 5.55792C9.74212 5.55693 9.72941 5.55693 9.72941 5.55693C10.3185 5.10148 10.6989 4.38822 10.6989 3.58777C10.6989 2.21588 9.58262 1.09961 8.21053 1.09961C6.83844 1.09961 5.72197 2.21588 5.72197 3.58797C5.72197 4.38842 6.10254 5.10148 6.69145 5.55712C6.69046 5.55752 6.69126 5.55812 6.69165 5.55851C5.747 5.60777 4.66152 5.89657 3.58736 8.49616L2.10384 11.5536C1.81107 12.1534 2.05299 12.9006 2.66416 13.1745C3.46779 13.5345 4.08055 13.0458 4.2887 12.6194L5.72594 9.84283V19.6552C5.72594 20.3673 6.30533 20.9467 7.0174 20.9467C7.55587 20.9467 8.01866 20.6154 8.21212 20.1456C8.40379 20.6194 8.86837 20.954 9.40982 20.954C10.1221 20.954 10.7015 20.3749 10.7015 19.6626V9.85157L12.1343 12.6196C12.2535 12.8631 12.5032 13.1378 12.847 13.2466C12.727 13.5005 12.6635 13.7587 12.6635 14.006C12.6635 14.9357 13.2093 15.0355 13.5122 14.9588C13.5672 15.4393 13.8489 15.7338 13.8606 15.7493V16.8086C13.0089 16.4816 12.5856 16.9373 12.4621 17.1258C12.2317 17.4763 12.1649 18.1983 12.5606 19.2777C12.3342 19.4266 12.1463 19.6815 12.1463 20.0674C12.1463 20.5399 12.5944 20.9544 13.1048 20.9544C13.4353 20.9544 13.6908 20.8182 13.7476 20.7852C14.2713 21.1356 15.1667 20.9215 15.4635 20.5145C15.7451 20.9141 16.6516 21.1407 17.1832 20.7852C17.24 20.818 17.4954 20.9544 17.8259 20.9544C18.3366 20.9544 18.7845 20.5399 18.7845 20.0674C18.7845 19.6817 18.5966 19.4149 18.3699 19.2659C20.7393 18.5096 19.861 16.2496 19.861 16.2496ZM17.9365 14.0004C17.9365 14.4447 17.7776 14.7961 17.3883 14.4904L16.424 12.3777C16.8213 12.0613 17.9365 13.1642 17.9365 14.0004ZM9.38102 1.75983C9.875 2.07863 10.2313 2.59187 10.3414 3.19171C9.59275 3.11127 9.36791 2.4582 9.38102 1.75983ZM8.87632 1.5197C8.8352 2.18191 8.08599 2.90013 6.13789 2.91503C6.49899 1.80333 7.70761 1.14053 8.87632 1.5197ZM6.06202 3.22568C7.97993 3.22568 8.78475 2.63159 9.07434 1.97812C9.11923 2.77639 9.49761 3.44695 10.3779 3.50594C10.398 4.79679 9.40505 5.76012 8.20477 5.76012C7.00449 5.76012 5.83141 4.69688 6.06202 3.22568ZM8.83778 6.00045L8.18749 6.65095L7.51554 5.9792C7.94616 6.10513 8.40399 6.11188 8.83778 6.00045ZM4.00586 12.4913C3.84994 12.8105 3.39311 13.1771 2.80141 12.9046C2.3553 12.6869 2.16859 12.1514 2.38648 11.7051L3.63364 9.13533L5.25501 10.079L4.00586 12.4913ZM7.98608 19.657C7.98608 20.1961 7.54911 20.6331 7.01005 20.6331C6.47118 20.6331 6.03421 20.1961 6.03421 19.657V18.7668H7.98608V19.657ZM10.3749 19.6646C10.3749 20.2032 9.93796 20.6402 9.3989 20.6402C8.86003 20.6402 8.42306 20.2032 8.42306 19.6646V18.7666H10.3747L10.3749 19.6646ZM10.3749 18.4565H8.42326V13.9752H7.98628V18.4565H6.03441V12.6436H10.3749V18.4565ZM10.3749 8.57303V12.3336H6.03441V8.57303L5.39762 9.80291L3.7693 8.85527C4.2891 7.85401 4.97038 5.7196 6.99158 5.89419L8.18749 7.0899L9.38301 5.89419C11.4129 5.76727 11.9901 7.48735 12.6327 8.85686L11.0036 9.80469L10.3749 8.57303ZM12.3935 12.4913L11.1456 10.0812L12.7672 9.13752L14.0131 11.7051C14.0638 11.809 14.0924 11.9179 14.1011 12.0263C14.1011 12.0263 13.4051 12.2217 12.9723 12.9714C12.6933 12.8961 12.4879 12.6847 12.3935 12.4913ZM12.9954 14.0004C12.9954 13.1642 14.0415 12.0962 14.5091 12.3586L13.5315 14.5008C13.1797 14.7862 12.9954 14.4447 12.9954 14.0004ZM13.8683 14.5101L14.7429 12.5936C14.9387 12.5088 15.9859 12.5086 16.1805 12.5936C16.1811 12.593 17.0775 14.5572 17.0775 14.5572C17.1893 14.8712 16.8707 16.168 15.4657 16.168C14.0513 16.1678 13.7176 14.8559 13.8683 14.5101ZM16.3996 16.2802C16.2119 17.241 14.7409 17.316 14.5371 16.28C15.0926 16.5402 15.8307 16.551 16.3996 16.2802ZM13.5037 17.0761C13.4727 17.6094 13.1223 18.0514 12.6641 18.1421C12.5944 17.579 12.6563 16.951 13.5037 17.0761ZM13.4707 20.5357C13.3873 20.5701 13.2562 20.611 13.1028 20.611C12.7821 20.611 12.5155 20.3453 12.5155 20.0968C12.5155 19.5591 13.0532 19.5124 13.0532 19.5124C13.0532 19.5124 12.8329 19.003 12.7157 18.448C13.2985 18.337 13.7476 17.8033 13.8089 17.1526C13.8314 17.1597 13.8536 17.1667 13.8769 17.1748V19.2234C13.2822 19.5166 13.2307 20.1544 13.4707 20.5357ZM16.6592 20.6108C15.9964 20.6108 15.6387 20.3657 15.6387 19.9051C15.6387 19.4445 15.6387 18.1469 15.6387 18.1469C15.6321 18.0823 15.5983 17.9882 15.4676 17.9882C15.33 17.9882 15.2974 18.076 15.2925 18.1534C15.2925 18.1534 15.2925 19.4554 15.2925 19.9049C15.2925 20.355 14.9347 20.6106 14.2721 20.6106C13.9529 20.6106 13.6878 20.3461 13.6878 20.099C13.6878 19.5641 14.2227 19.5176 14.2227 19.5176V16.3118C14.3105 16.9138 14.8388 17.3415 15.468 17.3415C16.0899 17.3415 16.6081 16.8997 16.7088 16.3118V19.518C16.7088 19.518 17.2435 19.5643 17.2435 20.0994C17.2437 20.3463 16.9788 20.6108 16.6592 20.6108ZM18.4003 20.0892C18.4003 20.3361 18.1352 20.6005 17.8164 20.6005C17.6642 20.6005 17.5337 20.5596 17.4509 20.5254C17.6996 20.1294 17.6038 19.4953 17.0471 19.2211V17.1842C17.4517 17.0431 17.9729 16.9698 18.1761 17.3671C18.183 17.3443 16.8326 18.2383 17.9538 19.2856L17.8662 19.5083C17.8658 19.5085 18.4003 19.5549 18.4003 20.0892ZM18.068 18.9517C18.0676 18.9531 18.0672 18.9545 18.0668 18.9559C17.4845 18.3415 18.0847 17.8319 18.2637 17.6905C19.3513 18.0341 19.7333 17.0668 19.7333 17.0668C19.6505 18.4563 18.2808 18.8921 18.068 18.9517Z"/>
</mask>
<path d="M19.861 16.2496C19.861 16.2496 19.3345 17.56 18.5902 17.3854C18.4526 16.9591 18.1084 16.5214 17.0709 16.8086V15.742C17.0735 15.738 17.0767 15.7342 17.0795 15.7302C17.2688 15.4643 17.3691 15.1808 17.4165 14.9578C17.6879 15.0402 18.2682 14.9355 18.2682 14.0058C18.2682 13.5573 18.0605 13.0734 17.6833 12.6426C17.4444 12.3695 16.7714 11.6181 16.0599 12.1878C15.882 12.1423 15.0448 12.1425 14.8666 12.188C14.7665 12.1046 14.6291 11.9947 14.437 11.9707C14.4233 11.8289 14.3849 11.6874 14.3196 11.5534L12.8359 8.49596C11.7695 5.91504 10.6808 5.61036 9.74073 5.55792C9.74212 5.55693 9.72941 5.55693 9.72941 5.55693C10.3185 5.10148 10.6989 4.38822 10.6989 3.58777C10.6989 2.21588 9.58262 1.09961 8.21053 1.09961C6.83844 1.09961 5.72197 2.21588 5.72197 3.58797C5.72197 4.38842 6.10254 5.10148 6.69145 5.55712C6.69046 5.55752 6.69126 5.55812 6.69165 5.55851C5.747 5.60777 4.66152 5.89657 3.58736 8.49616L2.10384 11.5536C1.81107 12.1534 2.05299 12.9006 2.66416 13.1745C3.46779 13.5345 4.08055 13.0458 4.2887 12.6194L5.72594 9.84283V19.6552C5.72594 20.3673 6.30533 20.9467 7.0174 20.9467C7.55587 20.9467 8.01866 20.6154 8.21212 20.1456C8.40379 20.6194 8.86837 20.954 9.40982 20.954C10.1221 20.954 10.7015 20.3749 10.7015 19.6626V9.85157L12.1343 12.6196C12.2535 12.8631 12.5032 13.1378 12.847 13.2466C12.727 13.5005 12.6635 13.7587 12.6635 14.006C12.6635 14.9357 13.2093 15.0355 13.5122 14.9588C13.5672 15.4393 13.8489 15.7338 13.8606 15.7493V16.8086C13.0089 16.4816 12.5856 16.9373 12.4621 17.1258C12.2317 17.4763 12.1649 18.1983 12.5606 19.2777C12.3342 19.4266 12.1463 19.6815 12.1463 20.0674C12.1463 20.5399 12.5944 20.9544 13.1048 20.9544C13.4353 20.9544 13.6908 20.8182 13.7476 20.7852C14.2713 21.1356 15.1667 20.9215 15.4635 20.5145C15.7451 20.9141 16.6516 21.1407 17.1832 20.7852C17.24 20.818 17.4954 20.9544 17.8259 20.9544C18.3366 20.9544 18.7845 20.5399 18.7845 20.0674C18.7845 19.6817 18.5966 19.4149 18.3699 19.2659C20.7393 18.5096 19.861 16.2496 19.861 16.2496ZM17.9365 14.0004C17.9365 14.4447 17.7776 14.7961 17.3883 14.4904L16.424 12.3777C16.8213 12.0613 17.9365 13.1642 17.9365 14.0004ZM9.38102 1.75983C9.875 2.07863 10.2313 2.59187 10.3414 3.19171C9.59275 3.11127 9.36791 2.4582 9.38102 1.75983ZM8.87632 1.5197C8.8352 2.18191 8.08599 2.90013 6.13789 2.91503C6.49899 1.80333 7.70761 1.14053 8.87632 1.5197ZM6.06202 3.22568C7.97993 3.22568 8.78475 2.63159 9.07434 1.97812C9.11923 2.77639 9.49761 3.44695 10.3779 3.50594C10.398 4.79679 9.40505 5.76012 8.20477 5.76012C7.00449 5.76012 5.83141 4.69688 6.06202 3.22568ZM8.83778 6.00045L8.18749 6.65095L7.51554 5.9792C7.94616 6.10513 8.40399 6.11188 8.83778 6.00045ZM4.00586 12.4913C3.84994 12.8105 3.39311 13.1771 2.80141 12.9046C2.3553 12.6869 2.16859 12.1514 2.38648 11.7051L3.63364 9.13533L5.25501 10.079L4.00586 12.4913ZM7.98608 19.657C7.98608 20.1961 7.54911 20.6331 7.01005 20.6331C6.47118 20.6331 6.03421 20.1961 6.03421 19.657V18.7668H7.98608V19.657ZM10.3749 19.6646C10.3749 20.2032 9.93796 20.6402 9.3989 20.6402C8.86003 20.6402 8.42306 20.2032 8.42306 19.6646V18.7666H10.3747L10.3749 19.6646ZM10.3749 18.4565H8.42326V13.9752H7.98628V18.4565H6.03441V12.6436H10.3749V18.4565ZM10.3749 8.57303V12.3336H6.03441V8.57303L5.39762 9.80291L3.7693 8.85527C4.2891 7.85401 4.97038 5.7196 6.99158 5.89419L8.18749 7.0899L9.38301 5.89419C11.4129 5.76727 11.9901 7.48735 12.6327 8.85686L11.0036 9.80469L10.3749 8.57303ZM12.3935 12.4913L11.1456 10.0812L12.7672 9.13752L14.0131 11.7051C14.0638 11.809 14.0924 11.9179 14.1011 12.0263C14.1011 12.0263 13.4051 12.2217 12.9723 12.9714C12.6933 12.8961 12.4879 12.6847 12.3935 12.4913ZM12.9954 14.0004C12.9954 13.1642 14.0415 12.0962 14.5091 12.3586L13.5315 14.5008C13.1797 14.7862 12.9954 14.4447 12.9954 14.0004ZM13.8683 14.5101L14.7429 12.5936C14.9387 12.5088 15.9859 12.5086 16.1805 12.5936C16.1811 12.593 17.0775 14.5572 17.0775 14.5572C17.1893 14.8712 16.8707 16.168 15.4657 16.168C14.0513 16.1678 13.7176 14.8559 13.8683 14.5101ZM16.3996 16.2802C16.2119 17.241 14.7409 17.316 14.5371 16.28C15.0926 16.5402 15.8307 16.551 16.3996 16.2802ZM13.5037 17.0761C13.4727 17.6094 13.1223 18.0514 12.6641 18.1421C12.5944 17.579 12.6563 16.951 13.5037 17.0761ZM13.4707 20.5357C13.3873 20.5701 13.2562 20.611 13.1028 20.611C12.7821 20.611 12.5155 20.3453 12.5155 20.0968C12.5155 19.5591 13.0532 19.5124 13.0532 19.5124C13.0532 19.5124 12.8329 19.003 12.7157 18.448C13.2985 18.337 13.7476 17.8033 13.8089 17.1526C13.8314 17.1597 13.8536 17.1667 13.8769 17.1748V19.2234C13.2822 19.5166 13.2307 20.1544 13.4707 20.5357ZM16.6592 20.6108C15.9964 20.6108 15.6387 20.3657 15.6387 19.9051C15.6387 19.4445 15.6387 18.1469 15.6387 18.1469C15.6321 18.0823 15.5983 17.9882 15.4676 17.9882C15.33 17.9882 15.2974 18.076 15.2925 18.1534C15.2925 18.1534 15.2925 19.4554 15.2925 19.9049C15.2925 20.355 14.9347 20.6106 14.2721 20.6106C13.9529 20.6106 13.6878 20.3461 13.6878 20.099C13.6878 19.5641 14.2227 19.5176 14.2227 19.5176V16.3118C14.3105 16.9138 14.8388 17.3415 15.468 17.3415C16.0899 17.3415 16.6081 16.8997 16.7088 16.3118V19.518C16.7088 19.518 17.2435 19.5643 17.2435 20.0994C17.2437 20.3463 16.9788 20.6108 16.6592 20.6108ZM18.4003 20.0892C18.4003 20.3361 18.1352 20.6005 17.8164 20.6005C17.6642 20.6005 17.5337 20.5596 17.4509 20.5254C17.6996 20.1294 17.6038 19.4953 17.0471 19.2211V17.1842C17.4517 17.0431 17.9729 16.9698 18.1761 17.3671C18.183 17.3443 16.8326 18.2383 17.9538 19.2856L17.8662 19.5083C17.8658 19.5085 18.4003 19.5549 18.4003 20.0892ZM18.068 18.9517C18.0676 18.9531 18.0672 18.9545 18.0668 18.9559C17.4845 18.3415 18.0847 17.8319 18.2637 17.6905C19.3513 18.0341 19.7333 17.0668 19.7333 17.0668C19.6505 18.4563 18.2808 18.8921 18.068 18.9517Z" fill="#202224"/>
<path d="M19.861 16.2496C19.861 16.2496 19.3345 17.56 18.5902 17.3854C18.4526 16.9591 18.1084 16.5214 17.0709 16.8086V15.742C17.0735 15.738 17.0767 15.7342 17.0795 15.7302C17.2688 15.4643 17.3691 15.1808 17.4165 14.9578C17.6879 15.0402 18.2682 14.9355 18.2682 14.0058C18.2682 13.5573 18.0605 13.0734 17.6833 12.6426C17.4444 12.3695 16.7714 11.6181 16.0599 12.1878C15.882 12.1423 15.0448 12.1425 14.8666 12.188C14.7665 12.1046 14.6291 11.9947 14.437 11.9707C14.4233 11.8289 14.3849 11.6874 14.3196 11.5534L12.8359 8.49596C11.7695 5.91504 10.6808 5.61036 9.74073 5.55792C9.74212 5.55693 9.72941 5.55693 9.72941 5.55693C10.3185 5.10148 10.6989 4.38822 10.6989 3.58777C10.6989 2.21588 9.58262 1.09961 8.21053 1.09961C6.83844 1.09961 5.72197 2.21588 5.72197 3.58797C5.72197 4.38842 6.10254 5.10148 6.69145 5.55712C6.69046 5.55752 6.69126 5.55812 6.69165 5.55851C5.747 5.60777 4.66152 5.89657 3.58736 8.49616L2.10384 11.5536C1.81107 12.1534 2.05299 12.9006 2.66416 13.1745C3.46779 13.5345 4.08055 13.0458 4.2887 12.6194L5.72594 9.84283V19.6552C5.72594 20.3673 6.30533 20.9467 7.0174 20.9467C7.55587 20.9467 8.01866 20.6154 8.21212 20.1456C8.40379 20.6194 8.86837 20.954 9.40982 20.954C10.1221 20.954 10.7015 20.3749 10.7015 19.6626V9.85157L12.1343 12.6196C12.2535 12.8631 12.5032 13.1378 12.847 13.2466C12.727 13.5005 12.6635 13.7587 12.6635 14.006C12.6635 14.9357 13.2093 15.0355 13.5122 14.9588C13.5672 15.4393 13.8489 15.7338 13.8606 15.7493V16.8086C13.0089 16.4816 12.5856 16.9373 12.4621 17.1258C12.2317 17.4763 12.1649 18.1983 12.5606 19.2777C12.3342 19.4266 12.1463 19.6815 12.1463 20.0674C12.1463 20.5399 12.5944 20.9544 13.1048 20.9544C13.4353 20.9544 13.6908 20.8182 13.7476 20.7852C14.2713 21.1356 15.1667 20.9215 15.4635 20.5145C15.7451 20.9141 16.6516 21.1407 17.1832 20.7852C17.24 20.818 17.4954 20.9544 17.8259 20.9544C18.3366 20.9544 18.7845 20.5399 18.7845 20.0674C18.7845 19.6817 18.5966 19.4149 18.3699 19.2659C20.7393 18.5096 19.861 16.2496 19.861 16.2496ZM17.9365 14.0004C17.9365 14.4447 17.7776 14.7961 17.3883 14.4904L16.424 12.3777C16.8213 12.0613 17.9365 13.1642 17.9365 14.0004ZM9.38102 1.75983C9.875 2.07863 10.2313 2.59187 10.3414 3.19171C9.59275 3.11127 9.36791 2.4582 9.38102 1.75983ZM8.87632 1.5197C8.8352 2.18191 8.08599 2.90013 6.13789 2.91503C6.49899 1.80333 7.70761 1.14053 8.87632 1.5197ZM6.06202 3.22568C7.97993 3.22568 8.78475 2.63159 9.07434 1.97812C9.11923 2.77639 9.49761 3.44695 10.3779 3.50594C10.398 4.79679 9.40505 5.76012 8.20477 5.76012C7.00449 5.76012 5.83141 4.69688 6.06202 3.22568ZM8.83778 6.00045L8.18749 6.65095L7.51554 5.9792C7.94616 6.10513 8.40399 6.11188 8.83778 6.00045ZM4.00586 12.4913C3.84994 12.8105 3.39311 13.1771 2.80141 12.9046C2.3553 12.6869 2.16859 12.1514 2.38648 11.7051L3.63364 9.13533L5.25501 10.079L4.00586 12.4913ZM7.98608 19.657C7.98608 20.1961 7.54911 20.6331 7.01005 20.6331C6.47118 20.6331 6.03421 20.1961 6.03421 19.657V18.7668H7.98608V19.657ZM10.3749 19.6646C10.3749 20.2032 9.93796 20.6402 9.3989 20.6402C8.86003 20.6402 8.42306 20.2032 8.42306 19.6646V18.7666H10.3747L10.3749 19.6646ZM10.3749 18.4565H8.42326V13.9752H7.98628V18.4565H6.03441V12.6436H10.3749V18.4565ZM10.3749 8.57303V12.3336H6.03441V8.57303L5.39762 9.80291L3.7693 8.85527C4.2891 7.85401 4.97038 5.7196 6.99158 5.89419L8.18749 7.0899L9.38301 5.89419C11.4129 5.76727 11.9901 7.48735 12.6327 8.85686L11.0036 9.80469L10.3749 8.57303ZM12.3935 12.4913L11.1456 10.0812L12.7672 9.13752L14.0131 11.7051C14.0638 11.809 14.0924 11.9179 14.1011 12.0263C14.1011 12.0263 13.4051 12.2217 12.9723 12.9714C12.6933 12.8961 12.4879 12.6847 12.3935 12.4913ZM12.9954 14.0004C12.9954 13.1642 14.0415 12.0962 14.5091 12.3586L13.5315 14.5008C13.1797 14.7862 12.9954 14.4447 12.9954 14.0004ZM13.8683 14.5101L14.7429 12.5936C14.9387 12.5088 15.9859 12.5086 16.1805 12.5936C16.1811 12.593 17.0775 14.5572 17.0775 14.5572C17.1893 14.8712 16.8707 16.168 15.4657 16.168C14.0513 16.1678 13.7176 14.8559 13.8683 14.5101ZM16.3996 16.2802C16.2119 17.241 14.7409 17.316 14.5371 16.28C15.0926 16.5402 15.8307 16.551 16.3996 16.2802ZM13.5037 17.0761C13.4727 17.6094 13.1223 18.0514 12.6641 18.1421C12.5944 17.579 12.6563 16.951 13.5037 17.0761ZM13.4707 20.5357C13.3873 20.5701 13.2562 20.611 13.1028 20.611C12.7821 20.611 12.5155 20.3453 12.5155 20.0968C12.5155 19.5591 13.0532 19.5124 13.0532 19.5124C13.0532 19.5124 12.8329 19.003 12.7157 18.448C13.2985 18.337 13.7476 17.8033 13.8089 17.1526C13.8314 17.1597 13.8536 17.1667 13.8769 17.1748V19.2234C13.2822 19.5166 13.2307 20.1544 13.4707 20.5357ZM16.6592 20.6108C15.9964 20.6108 15.6387 20.3657 15.6387 19.9051C15.6387 19.4445 15.6387 18.1469 15.6387 18.1469C15.6321 18.0823 15.5983 17.9882 15.4676 17.9882C15.33 17.9882 15.2974 18.076 15.2925 18.1534C15.2925 18.1534 15.2925 19.4554 15.2925 19.9049C15.2925 20.355 14.9347 20.6106 14.2721 20.6106C13.9529 20.6106 13.6878 20.3461 13.6878 20.099C13.6878 19.5641 14.2227 19.5176 14.2227 19.5176V16.3118C14.3105 16.9138 14.8388 17.3415 15.468 17.3415C16.0899 17.3415 16.6081 16.8997 16.7088 16.3118V19.518C16.7088 19.518 17.2435 19.5643 17.2435 20.0994C17.2437 20.3463 16.9788 20.6108 16.6592 20.6108ZM18.4003 20.0892C18.4003 20.3361 18.1352 20.6005 17.8164 20.6005C17.6642 20.6005 17.5337 20.5596 17.4509 20.5254C17.6996 20.1294 17.6038 19.4953 17.0471 19.2211V17.1842C17.4517 17.0431 17.9729 16.9698 18.1761 17.3671C18.183 17.3443 16.8326 18.2383 17.9538 19.2856L17.8662 19.5083C17.8658 19.5085 18.4003 19.5549 18.4003 20.0892ZM18.068 18.9517C18.0676 18.9531 18.0672 18.9545 18.0668 18.9559C17.4845 18.3415 18.0847 17.8319 18.2637 17.6905C19.3513 18.0341 19.7333 17.0668 19.7333 17.0668C19.6505 18.4563 18.2808 18.8921 18.068 18.9517Z" stroke="#202224" stroke-width="0.2" mask="url(#path-1-outside-1_2550_1267)"/>
</svg>
